<svg width="33" height="39" viewBox="0 0 33 39" fill="none" xmlns="http://www.w3.org/2000/svg">
<path d="M31.5043 30.114C30.9296 31.4416 30.2494 32.6637 29.4612 33.7873C28.387 35.3189 27.5074 36.3792 26.8295 36.9679C25.7786 37.9343 24.6528 38.4292 23.4471 38.4574C22.5816 38.4574 21.5378 38.2111 20.3228 37.7115C19.1038 37.2142 17.9835 36.9679 16.9592 36.9679C15.8849 36.9679 14.7327 37.2142 13.5003 37.7115C12.2661 38.2111 11.2718 38.4714 10.5116 38.4972C9.35543 38.5465 8.20303 38.0375 7.05275 36.9679C6.31857 36.3275 5.40027 35.2298 4.30018 33.6747C3.11987 32.014 2.1495 30.0882 1.38929 27.8927C0.575127 25.5213 0.166992 23.225 0.166992 21.0018C0.166992 18.4552 0.717271 16.2588 1.81947 14.4182C2.6857 12.9397 3.8381 11.7735 5.28041 10.9173C6.72272 10.0612 8.28114 9.62491 9.95942 9.597C10.8777 9.597 12.082 9.88105 13.5785 10.4393C15.0707 10.9994 16.0289 11.2835 16.449 11.2835C16.7631 11.2835 17.8275 10.9514 19.632 10.2892C21.3384 9.67511 22.7786 9.42084 23.9585 9.521C27.1555 9.77902 29.5574 11.0393 31.1548 13.3099C28.2955 15.0423 26.8811 17.4689 26.9092 20.5817C26.935 23.0064 27.8146 25.0241 29.5433 26.6261C30.3268 27.3697 31.2017 27.9443 32.1751 28.3525C31.964 28.9647 31.7412 29.5511 31.5043 30.114ZM24.1719 1.2607C24.1719 3.16114 23.4776 4.93557 22.0937 6.57796C20.4236 8.53045 18.4036 9.65869 16.213 9.48065C16.1851 9.25266 16.1689 9.01271 16.1689 8.76055C16.1689 6.93614 16.9632 4.98365 18.3736 3.38723C19.0777 2.57894 19.9733 1.90685 21.0593 1.37071C22.143 0.842575 23.168 0.550504 24.132 0.500488C24.1602 0.754547 24.1719 1.00862 24.1719 1.26068V1.2607Z" fill="white"/>
</svg>
