<svg width="65" height="64" viewBox="0 0 65 64" fill="none" xmlns="http://www.w3.org/2000/svg">
<rect x="0.166992" width="64" height="64" rx="16" fill="#D3D9DD"/>
<path d="M24.167 29.3332V26.6665C24.167 22.2532 25.5003 18.6665 32.167 18.6665C38.8337 18.6665 40.167 22.2532 40.167 26.6665V29.3332" stroke="#065CA8" stroke-width="1.5" stroke-linecap="round" stroke-linejoin="round"/>
<path d="M38.834 45.3335H25.5007C20.1673 45.3335 18.834 44.0002 18.834 38.6668V36.0002C18.834 30.6668 20.1673 29.3335 25.5007 29.3335H38.834C44.1673 29.3335 45.5007 30.6668 45.5007 36.0002V38.6668C45.5007 44.0002 44.1673 45.3335 38.834 45.3335Z" stroke="#065CA8" stroke-width="1.5" stroke-linecap="round" stroke-linejoin="round"/>
<path d="M37.4953 37.3332H37.5073" stroke="#065CA8" stroke-width="2" stroke-linecap="round" stroke-linejoin="round"/>
<path d="M32.1613 37.3332H32.1733" stroke="#065CA8" stroke-width="2" stroke-linecap="round" stroke-linejoin="round"/>
<path d="M26.8263 37.3332H26.8383" stroke="#065CA8" stroke-width="2" stroke-linecap="round" stroke-linejoin="round"/>
</svg>
