<svg width="32" height="33" viewBox="0 0 32 33" fill="none" xmlns="http://www.w3.org/2000/svg">
<path d="M23.0533 6.18925L22.96 11.2426C22.9467 11.9359 23.3867 12.8559 23.9467 13.2692L27.2534 15.7759C29.3734 17.3759 29.0267 19.3359 26.4934 20.1359L22.1867 21.4826C21.4667 21.7092 20.7067 22.4959 20.52 23.2292L19.4934 27.1493C18.68 30.2426 16.6533 30.5492 14.9733 27.8292L12.6267 24.0293C12.2 23.3359 11.1867 22.8159 10.3867 22.8559L5.93338 23.0826C2.74671 23.2426 1.84003 21.4026 3.92003 18.9759L6.56 15.9092C7.05334 15.3359 7.28 14.2693 7.05333 13.5493L5.70673 9.24257C4.92007 6.70924 6.33338 5.30926 8.85338 6.13592L12.7867 7.42926C13.4534 7.64259 14.4534 7.49591 15.0134 7.08258L19.1201 4.12258C21.3334 2.52258 23.1067 3.45591 23.0533 6.18925Z" fill="#065CA8"/>
<path opacity="0.4" d="M28.5866 27.9618L24.5466 23.9218C24.1599 23.5352 23.5199 23.5352 23.1333 23.9218C22.7466 24.3085 22.7466 24.9485 23.1333 25.3352L27.1733 29.3752C27.3733 29.5752 27.6266 29.6685 27.8799 29.6685C28.1333 29.6685 28.3866 29.5752 28.5866 29.3752C28.9733 28.9885 28.9733 28.3485 28.5866 27.9618Z" fill="#065CA8"/>
</svg>
