<svg width="65" height="64" viewBox="0 0 65 64" fill="none" xmlns="http://www.w3.org/2000/svg">
<rect x="0.833008" width="64" height="64" rx="16" fill="#D3D9DD"/>
<path d="M40.833 41.1468H39.8197C38.753 41.1468 37.7397 41.5601 36.993 42.3068L34.713 44.5602C33.673 45.5869 31.9797 45.5869 30.9397 44.5602L28.6597 42.3068C27.913 41.5601 26.8863 41.1468 25.833 41.1468H24.833C22.6197 41.1468 20.833 39.3735 20.833 37.1868V22.6401C20.833 20.4535 22.6197 18.6802 24.833 18.6802H40.833C43.0463 18.6802 44.833 20.4535 44.833 22.6401V37.1868C44.833 39.3602 43.0463 41.1468 40.833 41.1468Z" stroke="#065CA8" stroke-width="1.5" stroke-miterlimit="10" stroke-linecap="round" stroke-linejoin="round"/>
<path d="M26.166 28.2134C26.166 26.9734 27.1794 25.96 28.4194 25.96C29.6594 25.96 30.6727 26.9734 30.6727 28.2134C30.6727 30.72 27.1127 30.9867 26.326 33.3734C26.166 33.8667 26.5793 34.36 27.0993 34.36H30.6727" stroke="#065CA8" stroke-width="1.5" stroke-linecap="round" stroke-linejoin="round"/>
<path d="M38.2194 34.3465V26.7332C38.2194 26.3865 37.9927 26.0798 37.6594 25.9865C37.326 25.8931 36.966 26.0265 36.7794 26.3198C35.8194 27.8665 34.7794 29.6265 33.8727 31.1732C33.726 31.4265 33.726 31.7598 33.8727 32.0132C34.0194 32.2665 34.2994 32.4264 34.606 32.4264H39.4994" stroke="#065CA8" stroke-width="1.5" stroke-linecap="round" stroke-linejoin="round"/>
</svg>
