<svg width="65" height="64" viewBox="0 0 65 64" fill="none" xmlns="http://www.w3.org/2000/svg">
<rect x="0.5" width="64" height="64" rx="16" fill="#D3D9DD"/>
<path d="M28.7134 30.4932C28.5801 30.4798 28.4201 30.4798 28.2734 30.4932C25.1001 30.3865 22.5801 27.7865 22.5801 24.5865C22.5801 21.3198 25.2201 18.6665 28.5001 18.6665C31.7667 18.6665 34.4201 21.3198 34.4201 24.5865C34.4067 27.7865 31.8867 30.3865 28.7134 30.4932Z" stroke="#065CA8" stroke-width="1.5" stroke-linecap="round" stroke-linejoin="round"/>
<path d="M38.3804 21.3335C40.967 21.3335 43.047 23.4268 43.047 26.0002C43.047 28.4022 41.2299 30.3803 38.9004 30.641C38.6706 30.6667 38.4369 30.6413 38.207 30.6668V30.6668" stroke="#065CA8" stroke-width="1.5" stroke-linecap="round" stroke-linejoin="round"/>
<path d="M22.047 35.4135C18.8203 37.5735 18.8203 41.0935 22.047 43.2402C25.7136 45.6935 31.727 45.6935 35.3936 43.2402C38.6203 41.0802 38.6203 37.5602 35.3936 35.4135C31.7403 32.9735 25.727 32.9735 22.047 35.4135Z" stroke="#065CA8" stroke-width="1.5" stroke-linecap="round" stroke-linejoin="round"/>
<path d="M40.9531 42.6665C41.9131 42.4665 42.8198 42.0798 43.5665 41.5065C45.6465 39.9465 45.6465 37.3732 43.5665 35.8132C42.8331 35.2532 41.9398 34.8798 40.9931 34.6665" stroke="#065CA8" stroke-width="1.5" stroke-linecap="round" stroke-linejoin="round"/>
</svg>
