<svg width="64" height="64" viewBox="0 0 64 64" fill="none" xmlns="http://www.w3.org/2000/svg">
<rect width="64" height="64" rx="16" fill="#E6EFF6"/>
<path d="M44.1066 27.4404V36.5603C44.1066 38.0537 43.3066 39.4404 42.0132 40.2004L34.0932 44.7737C32.7999 45.5204 31.1999 45.5204 29.8932 44.7737L21.9732 40.2004C20.6799 39.4537 19.8799 38.067 19.8799 36.5603V27.4404C19.8799 25.947 20.6799 24.5603 21.9732 23.8003L29.8932 19.227C31.1866 18.4803 32.7865 18.4803 34.0932 19.227L42.0132 23.8003C43.3066 24.5603 44.1066 25.9337 44.1066 27.4404Z" stroke="#065CA8" stroke-width="2" stroke-linecap="round" stroke-linejoin="round"/>
<path d="M31.9992 30.6669C33.715 30.6669 35.1059 29.276 35.1059 27.5602C35.1059 25.8445 33.715 24.4536 31.9992 24.4536C30.2835 24.4536 28.8926 25.8445 28.8926 27.5602C28.8926 29.276 30.2835 30.6669 31.9992 30.6669Z" stroke="#065CA8" stroke-width="2" stroke-linecap="round" stroke-linejoin="round"/>
<path d="M37.3327 38.2138C37.3327 35.8138 34.946 33.8672 31.9993 33.8672C29.0527 33.8672 26.666 35.8138 26.666 38.2138" stroke="#065CA8" stroke-width="2" stroke-linecap="round" stroke-linejoin="round"/>
</svg>
