<svg width="171" height="167" viewBox="0 0 171 167" fill="none" xmlns="http://www.w3.org/2000/svg">
<g opacity="0.12">
<path d="M170.158 83.5C170.158 129.332 132.382 166.5 85.7656 166.5C39.1491 166.5 1.37305 129.332 1.37305 83.5C1.37305 37.6681 39.1491 0.5 85.7656 0.5C132.382 0.5 170.158 37.6681 170.158 83.5Z" stroke="white"/>
<path d="M150.812 83.5001C150.812 118.825 121.696 147.475 85.7619 147.475C49.828 147.475 20.7119 118.825 20.7119 83.5001C20.7119 48.1756 49.828 19.5254 85.7619 19.5254C121.696 19.5254 150.812 48.1756 150.812 83.5001Z" stroke="white"/>
<path d="M131.472 83.5001C131.472 108.317 111.016 128.45 85.765 128.45C60.5137 128.45 40.0576 108.317 40.0576 83.5001C40.0576 58.6831 60.5137 38.5508 85.765 38.5508C111.016 38.5508 131.472 58.6831 131.472 83.5001Z" stroke="white"/>
<path d="M112.126 83.5002C112.126 97.8099 100.33 109.424 85.7612 109.424C71.1926 109.424 59.3965 97.8099 59.3965 83.5002C59.3965 69.1905 71.1926 57.5762 85.7612 57.5762C100.33 57.5762 112.126 69.1905 112.126 83.5002Z" stroke="white"/>
<path d="M94.9334 83.5C94.9334 88.4698 90.8351 92.5126 85.7621 92.5126C80.6891 92.5126 76.5908 88.4698 76.5908 83.5C76.5908 78.5302 80.6891 74.4873 85.7621 74.4873C90.8351 74.4873 94.9334 78.5302 94.9334 83.5Z" stroke="white"/>
</g>
</svg>
