<svg width="65" height="64" viewBox="0 0 65 64" fill="none" xmlns="http://www.w3.org/2000/svg">
<rect x="0.833008" width="64" height="64" rx="16" fill="#D3D9DD"/>
<path d="M30.8199 18.9736L24.1665 21.4802C22.6332 22.0536 21.3799 23.8669 21.3799 25.4936V35.4002C21.3799 36.9736 22.4199 39.0402 23.6865 39.9869L29.4199 44.2669C31.2999 45.6802 34.3932 45.6802 36.2732 44.2669L42.0065 39.9869C43.2732 39.0402 44.3132 36.9736 44.3132 35.4002V25.4936C44.3132 23.8536 43.0599 22.0402 41.5266 21.4669L34.8732 18.9736C33.7399 18.5602 31.9265 18.5602 30.8199 18.9736Z" stroke="#065CA8" stroke-width="1.5" stroke-linecap="round" stroke-linejoin="round"/>
<path d="M28.8994 31.8269V31.8269C30.085 33.0125 32.0072 33.0125 33.1927 31.8269L36.7794 28.2402" stroke="#065CA8" stroke-width="1.5" stroke-linecap="round" stroke-linejoin="round"/>
</svg>
