<svg width="160" height="160" viewBox="0 0 160 160" fill="none" xmlns="http://www.w3.org/2000/svg">
<path opacity="0.4" d="M119.043 143.23L119.043 143.23L86.5138 125.165C86.5132 125.165 86.5126 125.165 86.512 125.164C84.718 124.145 82.3777 123.65 80.0583 123.65C77.7376 123.65 75.3819 124.145 73.5564 125.163L41.0255 143.229C41.0252 143.229 41.025 143.229 41.0248 143.229C35.8546 146.076 31.2682 146.2 28.0037 144.278C24.7394 142.355 22.6333 138.29 22.6333 132.4V38.4667C22.6333 24.6095 34.0094 13.2334 47.8666 13.2334H112.133C126.055 13.2334 137.367 24.6079 137.433 38.4675C137.433 38.468 137.433 38.4686 137.433 38.4691L137.433 132.4C137.433 138.324 135.326 142.406 132.063 144.328C128.8 146.249 124.214 146.11 119.043 143.23Z" fill="#B3B3B2" stroke="#B3B3B2"/>
<path d="M73.5797 76.6205L73.9333 76.974L74.2868 76.6205L97.4202 53.4871C99.1582 51.7491 102.042 51.7491 103.78 53.4871C105.518 55.2252 105.518 58.1086 103.78 59.8467L77.1131 86.5134C76.2118 87.4147 75.0745 87.8336 73.9333 87.8336C72.7921 87.8336 71.6548 87.4147 70.7535 86.5134L60.7535 76.5134C59.0154 74.7753 59.0154 71.8919 60.7535 70.1538C62.4916 68.4157 65.375 68.4157 67.1131 70.1538L73.5797 76.6205Z" fill="#B3B3B2" stroke="#B3B3B2"/>
</svg>
