<svg width="161" height="161" viewBox="0 0 161 161" fill="none" xmlns="http://www.w3.org/2000/svg">
<path d="M110.133 37.6341V38.1341H110.633H112.233C125.908 38.1341 135.201 41.2563 140.729 47.3695C146.841 54.1316 147 63.1311 146.469 69.8459C146.437 70.0753 146.42 70.2743 146.404 70.4522L146.402 70.4825C146.385 70.6744 146.37 70.84 146.34 71.0186L146.338 71.0332L146.336 71.0479L146.003 74.1789L146.003 74.1812L145.749 76.4603C145.726 76.4855 145.698 76.5094 145.676 76.5202L145.638 76.5395L145.603 76.5652C142.819 78.6201 139.969 80.4757 136.921 82.1988L136.92 82.1987L136.909 82.2054C136.771 82.2883 136.657 82.3621 136.549 82.4313C136.357 82.5552 136.187 82.6647 135.943 82.7869L135.928 82.7942L135.914 82.8024C124.101 89.7049 111.026 94.4171 97.4867 96.6072L97.0964 96.6703L97.0679 97.0648C96.8382 100.247 96.0226 103.539 93.5447 106.041C91.0716 108.537 86.8555 110.334 79.6333 110.334C72.4128 110.334 68.2295 108.522 65.7724 106.033C63.3087 103.537 62.4935 100.276 62.1976 97.1865L62.1609 96.8024L61.78 96.7406C49.1004 94.6826 36.6218 90.5005 25.2741 84.2626L25.2686 84.2596C24.2653 83.7245 23.2836 83.2006 22.3703 82.6135L22.3568 82.6048L22.3427 82.597C19.9609 81.2738 17.7078 79.8162 15.5106 78.3514L15.4847 78.3341L15.4569 78.3202C15.4444 78.314 15.418 78.297 15.3798 78.2653L14.731 71.4534L14.7299 71.4417L14.7282 71.4301L14.6631 70.9741C13.9982 64.2498 13.831 54.5917 20.2713 47.4355C25.7994 41.3226 35.0262 38.2008 48.7666 38.2008H50.3666H50.8666V37.7008V37.3674C50.8666 31.7662 50.8808 25.6588 53.9205 20.9295C56.9239 16.2567 62.9853 12.8008 75.4333 12.8008H85.5666C98.0154 12.8008 104.077 16.2406 107.08 20.9048C110.119 25.6256 110.133 31.7324 110.133 37.3674V37.6341ZM71.3666 83.8674H70.8666V84.3674V92.7674V92.798C70.8666 94.4727 70.8666 95.8512 70.9982 96.9558C71.131 98.0697 71.4051 98.9854 72.016 99.6808C72.6308 100.381 73.5224 100.785 74.7302 101.021C75.9339 101.256 77.5125 101.334 79.5666 101.334C81.6182 101.334 83.1954 101.268 84.397 101.049C85.6018 100.829 86.4968 100.444 87.1148 99.7501C87.7289 99.0611 88.0026 98.1422 88.1351 97.011C88.2666 95.8882 88.2666 94.4726 88.2666 92.7317V92.7008V84.3674V83.8674H87.7666H71.3666ZM101.1 38.2008H101.6V37.7008V37.3674V37.3403C101.6 34.5455 101.6 32.1412 101.354 30.1265C101.106 28.1012 100.603 26.4075 99.5516 25.0672C98.4942 23.7193 96.9289 22.7879 94.6743 22.1934C92.4282 21.601 89.4655 21.3341 85.5666 21.3341H75.4333C71.5348 21.3341 68.5724 21.5968 66.3266 22.1837C64.0724 22.7728 62.5067 23.6975 61.4487 25.0415C60.3967 26.378 59.894 28.0701 59.6463 30.0985C59.3999 32.1163 59.3999 34.5289 59.3999 37.3402V37.3674V37.6341V37.7008V38.2008H59.8999H101.1Z" fill="#B3B3B2" stroke="#B3B3B2"/>
<path opacity="0.4" d="M137.415 82.9342C140.3 81.3657 143.064 79.5656 145.758 77.6458L141.67 121.648C141.67 121.649 141.67 121.65 141.67 121.651C140.973 128.278 139.275 134.882 134.193 139.842C129.114 144.799 120.564 148.2 105.967 148.2H55.1671C40.5702 148.2 32.0201 144.799 26.941 139.85C21.8593 134.899 20.1607 128.31 19.4646 121.717C19.4645 121.716 19.4644 121.715 19.4643 121.714L15.5004 79.4111C17.5302 80.7565 19.6291 82.0983 21.8436 83.3293C22.7901 83.9368 23.8002 84.4755 24.7893 85.0029L24.7947 85.0058C36.1322 91.3038 48.5828 95.5006 61.2379 97.5328C61.5446 100.641 62.4339 104.007 65.0374 106.627C67.7557 109.363 72.2557 111.2 79.6337 111.2C87.013 111.2 91.5136 109.346 94.2318 106.584C96.8363 103.938 97.7244 100.537 98.0304 97.3957C111.553 95.0961 124.609 90.4319 136.419 83.5317L136.424 83.5288L136.924 83.2287L137.415 82.9342Z" fill="#B3B3B2" stroke="#B3B3B2"/>
</svg>
