<svg width="161" height="161" viewBox="0 0 161 161" fill="none" xmlns="http://www.w3.org/2000/svg">
<path opacity="0.4" d="M46.98 1H114.02C128.481 1 139.961 5.30843 147.826 13.1736C155.692 21.0387 160 32.5194 160 46.98V114.02C160 128.481 155.692 139.961 147.826 147.826C139.961 155.692 128.481 160 114.02 160H46.98C32.5194 160 21.0387 155.692 13.1736 147.826C5.30843 139.961 1 128.481 1 114.02V46.98C1 32.5194 5.30843 21.0387 13.1736 13.1736C21.0387 5.30843 32.5194 1 46.98 1Z" fill="#B3B3B2" stroke="#B3B3B2"/>
<path d="M130.48 55.4609C130.48 58.4691 128.06 60.9609 124.98 60.9609H82.9805C79.9766 60.9609 77.4805 58.4648 77.4805 55.4609C77.4805 52.4571 79.9766 49.9609 82.9805 49.9609H124.98C128.06 49.9609 130.48 52.4527 130.48 55.4609Z" fill="#B3B3B2" stroke="#B3B3B2"/>
<path d="M38.146 65.3593L38.1401 65.353L38.134 65.3469L32.134 59.3469L32.1341 59.3469L32.128 59.341C29.9313 57.2175 29.9313 53.7034 32.128 51.58L32.128 51.58L32.134 51.574C34.2546 49.4535 37.7003 49.4441 39.91 51.5771L41.6669 53.334L42.0205 53.6876L42.374 53.334L56.134 39.574C58.2545 37.4535 61.7002 37.4441 63.9099 39.577C66.0317 41.7021 66.0307 45.2232 63.9069 47.3469L45.9069 65.3469C44.8056 66.4482 43.415 66.9605 42.0205 66.9605C40.6151 66.9605 39.1562 66.4417 38.146 65.3593Z" fill="#B3B3B2" stroke="#B3B3B2"/>
<path d="M130.48 111.461C130.48 114.469 128.06 116.961 124.98 116.961H82.9805C79.9766 116.961 77.4805 114.465 77.4805 111.461C77.4805 108.457 79.9766 105.961 82.9805 105.961H124.98C128.06 105.961 130.48 108.453 130.48 111.461Z" fill="#B3B3B2" stroke="#B3B3B2"/>
<path d="M38.146 121.359L38.1401 121.353L38.134 121.347L32.134 115.347L32.1341 115.347L32.128 115.341C29.9313 113.218 29.9313 109.703 32.128 107.58L32.128 107.58L32.134 107.574C34.2546 105.453 37.7003 105.444 39.91 107.577L41.6669 109.334L42.0205 109.688L42.374 109.334L56.134 95.574C58.2545 93.4535 61.7002 93.4441 63.9099 95.577C66.0317 97.7021 66.0307 101.223 63.9069 103.347L45.9069 121.347C44.8056 122.448 43.415 122.96 42.0205 122.96C40.6151 122.96 39.1562 122.442 38.146 121.359Z" fill="#B3B3B2" stroke="#B3B3B2"/>
</svg>
