<svg width="160" height="160" viewBox="0 0 160 160" fill="none" xmlns="http://www.w3.org/2000/svg">
<path opacity="0.4" d="M117.4 68.433H136.667C140.057 68.433 142.833 71.2091 142.833 74.5997V109.533C142.833 121.31 138.73 130.456 132.124 136.66C125.514 142.869 116.359 146.166 106.2 146.166H53.7998C43.6403 146.166 34.4858 142.869 27.8755 136.66C21.2701 130.456 17.1665 121.31 17.1665 109.533V50.4663C17.1665 38.689 21.2701 29.5429 27.8755 23.3391C34.4858 17.1307 43.6403 13.833 53.7998 13.833H82.0665C85.457 13.833 88.2332 16.6091 88.2332 19.9997V39.2663C88.2332 55.3425 101.324 68.433 117.4 68.433Z" fill="#B3B3B2" stroke="#B3B3B2"/>
<path d="M116.205 58.2336H116.2C106.396 58.2336 98.3667 50.3777 98.3667 40.9336V17.6669C98.3667 14.3434 102.539 12.6467 104.98 15.0872C111.641 21.7479 121.643 31.8417 130.394 40.6723C134.605 44.9215 138.526 48.8783 141.645 52.0193L141.646 52.0205C143.969 54.3429 142.263 58.3003 138.867 58.3003C131.332 58.3003 122.535 58.3003 116.205 58.2336Z" fill="#B3B3B2" stroke="#B3B3B2"/>
</svg>
