<svg width="125" height="125" viewBox="0 0 125 125" fill="none" xmlns="http://www.w3.org/2000/svg">
<path d="M89.3319 22.0498L89.3319 22.0493C89.4336 16.8348 87.7909 13.5247 85.2722 12.2005C82.7542 10.8768 79.1053 11.4039 74.8833 14.4559L74.8827 14.4563L58.9739 25.923C58.9731 25.9235 58.9723 25.9241 58.9716 25.9247C57.8035 26.786 56.2098 27.3501 54.5934 27.5972C52.9751 27.8447 51.2794 27.7829 49.8963 27.3403L49.8925 27.3391L34.6511 22.3275L89.3319 22.0498ZM89.3319 22.0498L88.9702 41.631M89.3319 22.0498L88.9702 41.631M105.806 59.6065L105.805 59.6058L92.9968 49.8963C92.9959 49.8957 92.9951 49.8951 92.9943 49.8944C91.8268 49.0319 90.8132 47.6677 90.0987 46.1921C89.3836 44.7151 88.9425 43.0738 88.9702 41.6314C88.9702 41.6313 88.9702 41.6312 88.9702 41.631M105.806 59.6065L89.4701 41.6406L88.9702 41.631M105.806 59.6065C109.843 62.6536 111.393 65.936 110.904 68.7311C110.414 71.5276 107.837 74.1017 103.011 75.6256L86.3244 80.8435L86.3235 80.8438M105.806 59.6065L86.3235 80.8438M86.3235 80.8438C84.8282 81.3145 83.3255 82.3521 82.1084 83.6227C80.8922 84.8924 79.9203 86.4375 79.5313 87.9636C79.5311 87.9643 79.5309 87.965 79.5308 87.9657L75.5533 103.152L86.3235 80.8438ZM40.723 86.143L40.7235 86.143C42.3829 86.06 44.2278 86.5561 45.8618 87.4066C47.4955 88.2569 48.9682 89.4875 49.8538 90.9263L40.723 86.143ZM40.723 86.143L23.4669 87.0213C17.3369 87.3291 13.6605 85.6964 12.3868 83.1024C11.1131 80.5085 12.0687 76.6008 16.0699 71.9327L26.2991 60.0502L26.2991 60.0501M40.723 86.143L26.2991 60.0501M26.2991 60.0501C27.3238 58.8593 28.0504 57.1863 28.4115 55.4674M26.2991 60.0501L28.4115 55.4674M28.4115 55.4674C28.7725 53.7493 28.7804 51.928 28.309 50.4298L28.4115 55.4674ZM58.9472 105.651L49.8542 90.927L75.5532 103.152C73.9884 109.103 71.3194 112.119 68.4642 112.55C65.6098 112.98 62.1792 110.884 58.9472 105.651ZM28.3087 50.4289L23.0912 33.7424C21.5929 28.9172 22.2393 25.3385 24.2568 23.3446C26.2736 21.3514 29.8518 20.7532 34.6508 22.3274L28.3087 50.4289Z" fill="#B3B3B2" stroke="#B3B3B2"/>
<path opacity="0.4" d="M95.2644 91.1296L95.618 90.7761L95.2644 91.1296L110.92 106.785C112.223 108.088 112.223 110.251 110.92 111.554C110.243 112.23 109.391 112.544 108.535 112.544C107.678 112.544 106.826 112.231 106.15 111.554L90.4949 95.8992C89.1918 94.5961 89.1918 92.4327 90.4949 91.1296C91.798 89.8266 93.9614 89.8266 95.2644 91.1296Z" fill="#B3B3B2" stroke="#B3B3B2"/>
</svg>
