<svg width="65" height="64" viewBox="0 0 65 64" fill="none" xmlns="http://www.w3.org/2000/svg">
<path opacity="0.2" d="M56.7132 22.8803V41.1202C56.7132 44.1068 55.1132 46.8803 52.5265 48.4003L36.6865 57.5469C34.0999 59.0403 30.8998 59.0403 28.2865 57.5469L12.4465 48.4003C9.85978 46.9069 8.25977 44.1335 8.25977 41.1202V22.8803C8.25977 19.8936 9.85978 17.1201 12.4465 15.6001L28.2865 6.4535C30.8731 4.96016 34.0732 4.96016 36.6865 6.4535L52.5265 15.6001C55.1132 17.1201 56.7132 19.8669 56.7132 22.8803Z" fill="#ED0505"/>
<path d="M32.5 36.6665C31.4067 36.6665 30.5 35.7598 30.5 34.6665V20.6665C30.5 19.5732 31.4067 18.6665 32.5 18.6665C33.5933 18.6665 34.5 19.5732 34.5 20.6665V34.6665C34.5 35.7598 33.5933 36.6665 32.5 36.6665Z" fill="#ED0505"/>
<path d="M32.4997 45.9998C32.153 45.9998 31.8063 45.9197 31.4863 45.7864C31.1397 45.6531 30.8729 45.4665 30.6063 45.2265C30.3663 44.9598 30.1797 44.6665 30.0197 44.3465C29.8864 44.0265 29.833 43.6798 29.833 43.3331C29.833 42.6398 30.0996 41.9464 30.6063 41.4397C30.8729 41.1997 31.1397 41.0132 31.4863 40.8798C32.473 40.4532 33.6464 40.6931 34.3931 41.4397C34.6331 41.7064 34.8196 41.9731 34.953 42.3198C35.0863 42.6398 35.1663 42.9865 35.1663 43.3331C35.1663 43.6798 35.0863 44.0265 34.953 44.3465C34.8196 44.6665 34.6331 44.9598 34.3931 45.2265C33.8864 45.7332 33.2197 45.9998 32.4997 45.9998Z" fill="#ED0505"/>
</svg>
