<svg width="199" height="69" viewBox="0 0 199 69" fill="none" xmlns="http://www.w3.org/2000/svg">
<path d="M70.042 5.8825C70.042 3.35724 72.3531 1.46381 74.829 1.96069L131.87 13.4079C132.378 13.51 132.902 13.5121 133.412 13.4142L193.245 1.91394C195.712 1.43981 198 3.33009 198 5.84204V41.073C198 43.5009 195.855 45.3689 193.45 45.0351L133.202 36.6718C132.829 36.62 132.451 36.6212 132.078 36.6752L74.6158 45.0037C72.2035 45.3534 70.042 43.4826 70.042 41.0451V5.8825Z" stroke="#05AA4B" stroke-width="2" stroke-dasharray="10 10"/>
<path d="M1 29.1847C1 26.6907 3.2574 24.8048 5.71161 25.2485L60.5851 35.1689C61.0557 35.254 61.5377 35.254 62.0083 35.1689L116.882 25.2485C119.336 24.8048 121.593 26.6907 121.593 29.1847V63.3694C121.593 65.81 119.427 67.6816 117.012 67.327L61.878 59.2284C61.4926 59.1718 61.1009 59.1718 60.7154 59.2284L5.58132 67.327C3.16667 67.6816 1 65.81 1 63.3694V29.1847Z" stroke="#FC4409" stroke-width="2" stroke-dasharray="10 10"/>
</svg>
