<svg width="137" height="36" viewBox="0 0 137 36" fill="none" xmlns="http://www.w3.org/2000/svg">
<path d="M18.6405 0.234656C19.6455 0.268269 20.6506 0.298769 21.6558 0.326084C24.0988 0.393412 26.5265 0.524004 28.9701 0.652615C28.9701 5.38152 28.9701 10.1104 28.9701 14.9826C26.6056 14.9826 24.2412 14.9826 21.8051 14.9826C21.8051 12.6182 21.8051 10.2537 21.8051 7.81762C17.2338 7.81762 12.6625 7.81762 7.95272 7.81762C7.95272 17.1178 7.95272 26.418 7.95272 36C6.84931 35.0542 5.7459 34.1084 4.60905 33.134C4.04422 32.6677 4.04422 32.6677 3.46799 32.192C1.67536 30.5934 0.580355 29.394 0.247769 26.9679C0.203662 26.1021 0.181905 25.235 0.17943 24.3681C0.163751 23.6684 0.163751 23.6684 0.147754 22.9546C0.132662 21.9712 0.127615 20.9875 0.132084 20.004C0.130926 18.5164 0.0739454 17.0379 0.0133664 15.5517C-0.0747664 10.8871 0.186634 6.88035 3.47459 3.32457C7.7819 -0.688334 13.1369 -0.0877044 18.6405 0.234656Z" fill="white"/>
<path d="M21.8051 22.1476C24.1695 22.1476 26.534 22.1476 28.9701 22.1476C28.9701 26.7189 28.9701 31.2902 28.9701 36C24.2412 36 19.5123 36 14.6401 36C14.6401 33.6355 14.6401 31.2711 14.6401 28.835C17.0045 28.835 19.369 28.835 21.8051 28.835C21.8051 26.6282 21.8051 24.4213 21.8051 22.1476Z" fill="white"/>
<path d="M124.504 11.639C126.892 11.639 126.892 11.639 127.769 12.3979C128.034 12.746 128.299 13.094 128.571 13.4526C128.863 13.8319 129.155 14.2112 129.456 14.602C129.901 15.2042 129.901 15.2042 130.355 15.8186C130.659 16.2126 130.963 16.6067 131.277 17.0127C133.707 20.2191 133.707 20.2191 134.057 22.1476C134.372 22.1476 134.687 22.1476 135.012 22.1476C135.012 18.6798 135.012 15.2119 135.012 11.639C135.643 11.639 136.273 11.639 136.923 11.639C136.923 16.5255 136.923 21.412 136.923 26.4467C134.535 26.4467 134.535 26.4467 133.657 25.6211C133.393 25.2439 133.128 24.8668 132.855 24.4781C132.563 24.0708 132.272 23.6635 131.971 23.2439C131.674 22.8131 131.377 22.3824 131.071 21.9387C130.472 21.0934 129.872 20.2481 129.273 19.4029C129.01 19.0252 128.748 18.6475 128.477 18.2583C127.91 17.4074 127.91 17.4074 127.37 16.8933C127.212 20.0459 127.054 23.1985 126.892 26.4467C126.104 26.4467 125.316 26.4467 124.504 26.4467C124.504 21.5601 124.504 16.6736 124.504 11.639Z" fill="white"/>
<path d="M107.785 11.639C110.174 11.639 110.174 11.639 111.051 12.3979C111.316 12.746 111.58 13.094 111.853 13.4526C112.145 13.8319 112.437 14.2112 112.737 14.602C113.182 15.2042 113.182 15.2042 113.637 15.8186C113.941 16.2126 114.245 16.6067 114.558 17.0127C116.989 20.2191 116.989 20.2191 117.339 22.1476C117.654 22.1476 117.969 22.1476 118.294 22.1476C118.294 18.6798 118.294 15.2119 118.294 11.639C118.924 11.639 119.555 11.639 120.205 11.639C120.205 16.5255 120.205 21.412 120.205 26.4467C117.816 26.4467 117.816 26.4467 116.939 25.6211C116.674 25.2439 116.41 24.8668 116.137 24.4781C115.845 24.0708 115.553 23.6635 115.252 23.2439C114.956 22.8131 114.659 22.3824 114.353 21.9387C113.754 21.0934 113.154 20.2481 112.554 19.4029C112.292 19.0252 112.029 18.6475 111.759 18.2583C111.192 17.4074 111.192 17.4074 110.651 16.8933C110.494 20.0459 110.336 23.1985 110.174 26.4467C109.385 26.4467 108.597 26.4467 107.785 26.4467C107.785 21.5601 107.785 16.6736 107.785 11.639Z" fill="white"/>
<path d="M60.4961 11.639C61.5802 11.5065 61.5802 11.5065 62.8845 11.639C63.8155 12.5626 63.8155 12.5626 64.6459 13.7586C65.6874 15.3484 65.6874 15.3484 67.1835 16.4156C67.3608 16.0314 67.3608 16.0314 67.5417 15.6394C68.305 14.1893 69.0072 12.9129 70.0495 11.639C71.6019 11.4598 71.6019 11.4598 72.9155 11.639C71.6177 13.9941 70.2087 16.1591 68.6165 18.3263C69.4193 20.0713 70.4639 21.6061 71.5422 23.1925C73.3931 25.9163 73.3931 25.9163 73.3931 26.4467C72.1691 26.7153 72.1691 26.7153 70.5271 26.4467C69.2139 25.1492 68.1444 23.7227 67.1835 22.1476C67.1835 21.8324 67.1835 21.5171 67.1835 21.1923C65.8415 22.4597 64.8065 23.5613 63.8697 25.1629C63.382 25.7984 63.382 25.7984 62.8845 26.4467C61.332 26.6258 61.332 26.6258 60.0185 26.4467C61.1781 24.3421 62.371 22.4554 63.9088 20.6064C64.514 19.3518 64.2699 18.6789 63.8398 17.371C63.0722 16.1045 63.0722 16.1045 62.1381 14.8931C60.4961 12.6894 60.4961 12.6894 60.4961 11.639Z" fill="white"/>
<path d="M85.402 12.0681C86.1984 12.5246 86.9644 13.0331 87.7232 13.5496C87.4079 14.1802 87.0926 14.8107 86.7678 15.4603C86.4624 15.3027 86.157 15.145 85.8424 14.9826C83.8769 14.3409 82.1267 14.1534 80.0805 14.505C78.6268 15.4543 77.8733 16.091 77.4832 17.8188C77.372 19.6529 77.5815 20.5413 78.5878 22.1178C79.8942 23.3858 80.2732 23.5642 82.1106 23.6702C83.8535 23.5831 85.1515 23.2561 86.7678 22.6253C87.0831 23.2558 87.3984 23.8864 87.7232 24.536C85.1717 26.2731 83.1789 27.0018 80.0805 26.4467C77.9332 25.373 75.9045 23.8675 74.8261 21.67C74.3218 19.3507 74.2778 17.3379 75.5128 15.2607C78.1425 12.1493 81.3436 10.3648 85.402 12.0681Z" fill="white"/>
<path d="M36.6128 11.639C39.923 11.639 43.2332 11.639 46.6438 11.639C46.6438 12.4271 46.6438 13.2153 46.6438 14.0273C44.1217 14.0273 41.5996 14.0273 39.0011 14.0273C39.0011 15.2883 39.0011 16.5494 39.0011 17.8486C41.2079 17.8486 43.4147 17.8486 45.6884 17.8486C45.6884 18.6368 45.6884 19.4249 45.6884 20.237C43.4816 20.237 41.2748 20.237 39.0011 20.237C39.0011 22.2862 39.0011 24.3354 39.0011 26.4467C38.2129 26.4467 37.4248 26.4467 36.6128 26.4467C36.6128 21.5601 36.6128 16.6736 36.6128 11.639Z" fill="white"/>
<path d="M14.6401 14.9826C17.0045 14.9826 19.369 14.9826 21.8051 14.9826C21.8051 17.1895 21.8051 19.3963 21.8051 21.67C19.4406 21.67 17.0762 21.67 14.6401 21.67C14.6401 19.4632 14.6401 17.2563 14.6401 14.9826Z" fill="white"/>
<path d="M55.2418 11.639C56.0299 11.639 56.8181 11.639 57.6301 11.639C57.6301 16.5255 57.6301 21.412 57.6301 26.4467C56.842 26.4467 56.0538 26.4467 55.2418 26.4467C55.2418 21.5601 55.2418 16.6736 55.2418 11.639Z" fill="white"/>
<path d="M48.5544 11.639C49.3426 11.639 50.1307 11.639 50.9428 11.639C50.9428 16.5255 50.9428 21.412 50.9428 26.4467C50.1546 26.4467 49.3665 26.4467 48.5544 26.4467C48.5544 21.5601 48.5544 16.6736 48.5544 11.639Z" fill="white"/>
<path fill-rule="evenodd" clip-rule="evenodd" d="M104.919 17.371C104.14 15.0332 102.736 13.5376 100.74 12.1763C98.4324 11.3777 96.2782 11.1565 93.9366 11.9692C91.8448 13.0421 90.6123 14.3021 89.6338 16.4156C89.2332 19.2109 89.3396 21.7373 91.0668 24.0583C92.9486 25.7236 94.6529 26.5927 97.187 26.6258C99.88 26.5018 101.608 25.4844 103.486 23.5807C104.869 21.4603 105.109 19.8824 104.919 17.371ZM100.859 15.1618C99.5368 14.0679 98.5963 13.8591 96.8884 13.8482C96.7222 13.8554 96.5643 13.8581 96.4132 13.8607C95.6304 13.8742 95.031 13.8844 94.4105 14.505C93.8507 14.9419 93.5469 15.179 93.2707 15.4447C92.943 15.76 92.654 16.1157 92.0222 16.8933C91.7918 18.3497 91.8112 19.7336 92.0222 21.1923L92.4998 21.67C93.4552 22.894 93.4552 22.894 94.8882 24.0583C96.6961 24.3487 98.485 24.4094 100.143 23.5807L100.222 23.5014C101.818 21.9059 102.478 21.2463 102.71 18.9234C102.483 16.9597 102.236 16.608 100.859 15.1618Z" fill="white"/>
</svg>
