<svg width="208" height="56" viewBox="0 0 208 56" fill="none" xmlns="http://www.w3.org/2000/svg">
<path d="M28.3169 1.04568C29.8436 1.09674 31.3704 1.14307 32.8974 1.18456C36.6086 1.28684 40.2965 1.48523 44.0085 1.6806C44.0085 8.86429 44.0085 16.048 44.0085 23.4494C40.4167 23.4494 36.8248 23.4494 33.1242 23.4494C33.1242 19.8575 33.1242 16.2657 33.1242 12.565C26.1799 12.565 19.2357 12.565 12.081 12.565C12.081 26.6929 12.081 40.8209 12.081 55.3769C10.4048 53.9402 8.72861 52.5034 7.00162 51.0232C6.14359 50.3148 6.14359 50.3148 5.26823 49.5922C2.54505 47.1637 0.881619 45.3417 0.376386 41.6563C0.309384 40.341 0.276332 39.0237 0.272573 37.7068C0.248754 36.6439 0.248754 36.6439 0.224454 35.5596C0.201527 34.0657 0.19386 32.5714 0.200649 31.0773C0.19889 28.8175 0.112331 26.5716 0.020305 24.3139C-0.113578 17.2279 0.283516 11.1412 5.27826 5.73957C11.8215 -0.356441 19.9564 0.555977 28.3169 1.04568Z" fill="#065CA8"/>
<path d="M33.1242 34.3338C36.716 34.3338 40.3079 34.3338 44.0085 34.3338C44.0085 41.278 44.0085 48.2222 44.0085 55.3769C36.8248 55.3769 29.6411 55.3769 22.2398 55.3769C22.2398 51.7851 22.2398 48.1932 22.2398 44.4925C25.8316 44.4925 29.4235 44.4925 33.1242 44.4925C33.1242 41.1401 33.1242 37.7877 33.1242 34.3338Z" fill="#065CA8"/>
<path d="M189.134 18.37C192.762 18.37 192.762 18.37 194.095 19.5229C194.497 20.0516 194.899 20.5804 195.313 21.1251C195.756 21.7013 196.2 22.2775 196.656 22.8711C197.333 23.7859 197.333 23.7859 198.023 24.7192C198.485 25.3179 198.947 25.9165 199.423 26.5333C203.115 31.404 203.115 31.404 203.646 34.3338C204.125 34.3338 204.604 34.3338 205.098 34.3338C205.098 29.0657 205.098 23.7977 205.098 18.37C206.055 18.37 207.013 18.37 208 18.37C208 25.7931 208 33.2163 208 40.8644C204.372 40.8644 204.372 40.8644 203.039 39.6103C202.637 39.0373 202.235 38.4644 201.821 37.874C201.377 37.2553 200.934 36.6365 200.477 35.999C200.026 35.3447 199.576 34.6904 199.111 34.0163C198.2 32.7322 197.29 31.4482 196.379 30.1643C195.98 29.5905 195.581 29.0167 195.17 28.4255C194.309 27.1329 194.309 27.1329 193.487 26.3519C193.248 31.141 193.009 35.9301 192.762 40.8644C191.565 40.8644 190.367 40.8644 189.134 40.8644C189.134 33.4412 189.134 26.0181 189.134 18.37Z" fill="#065CA8"/>
<path d="M163.737 18.37C167.365 18.37 167.365 18.37 168.698 19.5229C169.1 20.0516 169.502 20.5804 169.916 21.1251C170.359 21.7013 170.803 22.2775 171.26 22.8711C171.936 23.7859 171.936 23.7859 172.626 24.7192C173.088 25.3179 173.55 25.9165 174.026 26.5333C177.718 31.404 177.718 31.404 178.249 34.3338C178.728 34.3338 179.207 34.3338 179.701 34.3338C179.701 29.0657 179.701 23.7977 179.701 18.37C180.658 18.37 181.616 18.37 182.603 18.37C182.603 25.7931 182.603 33.2163 182.603 40.8644C178.975 40.8644 178.975 40.8644 177.642 39.6103C177.24 39.0373 176.838 38.4644 176.424 37.874C175.981 37.2553 175.537 36.6365 175.08 35.999C174.63 35.3447 174.179 34.6904 173.714 34.0163C172.803 32.7322 171.893 31.4482 170.982 30.1643C170.583 29.5905 170.184 29.0167 169.774 28.4255C168.912 27.1329 168.912 27.1329 168.091 26.3519C167.851 31.141 167.612 35.9301 167.365 40.8644C166.168 40.8644 164.97 40.8644 163.737 40.8644C163.737 33.4412 163.737 26.0181 163.737 18.37Z" fill="#065CA8"/>
<path d="M91.8999 18.37C93.5467 18.1687 93.5467 18.1687 95.528 18.37C96.9424 19.7731 96.9424 19.7731 98.2037 21.59C99.786 24.005 99.786 24.005 102.059 25.6263C102.328 25.0426 102.328 25.0426 102.603 24.4471C103.762 22.2441 104.829 20.3052 106.412 18.37C108.771 18.0979 108.771 18.0979 110.766 18.37C108.795 21.9477 106.654 25.2365 104.235 28.5288C105.455 31.1796 107.042 33.5111 108.68 35.9211C111.492 40.0587 111.492 40.0587 111.492 40.8644C109.632 41.2726 109.632 41.2726 107.138 40.8644C105.143 38.8934 103.518 36.7264 102.059 34.3338C102.059 33.8549 102.059 33.3759 102.059 32.8825C100.02 34.8078 98.4477 36.4812 97.0246 38.9143C96.2838 39.8796 96.2838 39.8796 95.528 40.8644C93.1697 41.1365 93.1697 41.1365 91.1742 40.8644C92.9359 37.6673 94.748 34.8013 97.0841 31.9925C98.0034 30.0867 97.6326 29.0644 96.9792 27.0775C95.8132 25.1536 95.8132 25.1536 94.3942 23.3133C91.8999 19.9658 91.8999 19.9658 91.8999 18.37Z" fill="#065CA8"/>
<path d="M129.734 19.0219C130.944 19.7153 132.108 20.4878 133.261 21.2725C132.782 22.2303 132.303 23.1882 131.809 24.175C131.345 23.9356 130.881 23.6961 130.403 23.4494C127.418 22.4744 124.759 22.1898 121.651 22.7238C119.442 24.1659 118.298 25.1331 117.705 27.7578C117.536 30.544 117.854 31.8936 119.383 34.2884C121.367 36.2146 121.943 36.4857 124.734 36.6467C127.382 36.5143 129.354 36.0176 131.809 35.0594C132.288 36.0172 132.767 36.975 133.261 37.9619C129.385 40.6008 126.357 41.7077 121.651 40.8644C118.389 39.2334 115.307 36.9464 113.669 33.6081C112.902 30.085 112.836 27.0273 114.712 23.8717C118.706 19.1452 123.569 16.4343 129.734 19.0219Z" fill="#065CA8"/>
<path d="M55.6186 18.37C60.6471 18.37 65.6757 18.37 70.8567 18.37C70.8567 19.5673 70.8567 20.7646 70.8567 21.9981C67.0254 21.9981 63.1941 21.9981 59.2467 21.9981C59.2467 23.9138 59.2467 25.8294 59.2467 27.8031C62.5991 27.8031 65.9515 27.8031 69.4054 27.8031C69.4054 29.0004 69.4054 30.1977 69.4054 31.4313C66.0531 31.4313 62.7007 31.4313 59.2467 31.4313C59.2467 34.5442 59.2467 37.6571 59.2467 40.8644C58.0494 40.8644 56.8521 40.8644 55.6186 40.8644C55.6186 33.4412 55.6186 26.0181 55.6186 18.37Z" fill="#065CA8"/>
<path d="M22.2398 23.4494C25.8316 23.4494 29.4235 23.4494 33.1242 23.4494C33.1242 26.8018 33.1242 30.1542 33.1242 33.6081C29.5323 33.6081 25.9405 33.6081 22.2398 33.6081C22.2398 30.2558 22.2398 26.9034 22.2398 23.4494Z" fill="#065CA8"/>
<path d="M83.918 18.37C85.1152 18.37 86.3125 18.37 87.5461 18.37C87.5461 25.7931 87.5461 33.2163 87.5461 40.8644C86.3488 40.8644 85.1515 40.8644 83.918 40.8644C83.918 33.4412 83.918 26.0181 83.918 18.37Z" fill="#065CA8"/>
<path d="M73.7592 18.37C74.9565 18.37 76.1538 18.37 77.3873 18.37C77.3873 25.7931 77.3873 33.2163 77.3873 40.8644C76.1901 40.8644 74.9928 40.8644 73.7592 40.8644C73.7592 33.4412 73.7592 26.0181 73.7592 18.37Z" fill="#065CA8"/>
<path fill-rule="evenodd" clip-rule="evenodd" d="M159.383 27.0775C158.199 23.5262 156.067 21.2542 153.034 19.1863C149.529 17.9731 146.257 17.6371 142.699 18.8717C139.522 20.5014 137.649 22.4155 136.163 25.6263C135.554 29.8725 135.716 33.7104 138.34 37.2363C141.199 39.7661 143.788 41.0863 147.637 41.1365C151.728 40.9482 154.353 39.4027 157.206 36.5106C159.307 33.2896 159.671 30.8926 159.383 27.0775ZM153.215 23.7215C151.207 22.0599 149.778 21.7426 147.183 21.726C146.931 21.737 146.691 21.7411 146.462 21.7451C145.272 21.7655 144.362 21.7811 143.419 22.7238C142.569 23.3875 142.107 23.7476 141.688 24.1513C141.19 24.6303 140.751 25.1706 139.791 26.3519C139.441 28.5643 139.471 30.6666 139.791 32.8825L140.517 33.6081C141.968 35.4676 141.968 35.4676 144.145 37.2363C146.891 37.6774 149.609 37.7696 152.127 36.5106L152.247 36.3902C154.672 33.9665 155.674 32.9645 156.027 29.4358C155.683 26.4527 155.308 25.9185 153.215 23.7215Z" fill="#065CA8"/>
</svg>
