<svg width="626" height="860" viewBox="0 0 626 860" fill="none" xmlns="http://www.w3.org/2000/svg">
<rect width="626" height="860" rx="16" fill="#FAFAFB"/>
<g clip-path="url(#clip0_2492_4738)">
<path d="M268.156 594.699H187.326C167.371 594.699 163.56 599.408 171.968 602.883C180.376 606.358 140.129 604.677 133.291 610.843C126.34 617.009 144.053 619.363 163.223 619.363H317.259C332.618 619.363 328.806 608.152 319.613 606.695C310.421 605.237 334.524 607.255 343.717 604.004C352.909 600.753 346.295 594.699 268.156 594.699Z" fill="#E6EFF6"/>
<path d="M386.094 615.215C383.739 618.466 375.892 619.251 362.551 618.915C352.461 618.578 341.923 617.794 341.923 613.085C341.923 608.377 367.596 608.937 376.565 609.946C384.3 610.843 387.439 613.309 386.094 615.215Z" fill="#FAFAFB"/>
<path d="M153.804 599.52C152.235 601.874 146.854 602.547 137.437 602.547C130.374 602.547 122.975 602.211 122.751 598.96C122.526 595.596 140.576 595.484 146.966 596.045C152.347 596.493 154.701 598.063 153.804 599.52Z" fill="#FAFAFB"/>
<path d="M548.538 591.897H508.516C507.001 591.891 505.551 591.287 504.48 590.216C503.409 589.145 502.805 587.694 502.798 586.18V544.812C502.805 543.298 503.409 541.847 504.48 540.776C505.551 539.705 507.001 539.101 508.516 539.095H548.538C550.053 539.101 551.503 539.705 552.574 540.776C553.645 541.847 554.25 543.298 554.256 544.812V586.18C554.25 587.694 553.645 589.145 552.574 590.216C551.503 591.287 550.053 591.891 548.538 591.897Z" fill="#E6EFF6"/>
<path d="M546.633 589.992H508.18C506.724 589.989 505.328 589.41 504.298 588.38C503.268 587.35 502.689 585.954 502.687 584.498V544.588C502.689 543.132 503.268 541.736 504.298 540.706C505.328 539.677 506.724 539.097 508.18 539.095H546.633C548.089 539.097 549.485 539.677 550.514 540.706C551.544 541.736 552.124 543.132 552.126 544.588V584.498C552.124 585.954 551.544 587.35 550.514 588.38C549.485 589.41 548.089 589.989 546.633 589.992Z" fill="#DADFE3"/>
<path d="M527.798 581.135C536.714 581.135 543.941 573.907 543.941 564.991C543.941 556.075 536.714 548.848 527.798 548.848C518.882 548.848 511.654 556.075 511.654 564.991C511.654 573.907 518.882 581.135 527.798 581.135Z" fill="#E6EFF6"/>
<path d="M521.409 572.279C521.142 572.279 520.885 572.173 520.696 571.984C520.507 571.795 520.4 571.538 520.4 571.27V558.826C520.4 558.559 520.507 558.302 520.696 558.113C520.885 557.924 521.142 557.817 521.409 557.817V557.817C521.677 557.817 521.934 557.924 522.123 558.113C522.312 558.302 522.418 558.559 522.418 558.826V571.27C522.418 571.538 522.312 571.795 522.123 571.984C521.934 572.173 521.677 572.279 521.409 572.279Z" fill="#065CA8"/>
<path d="M533.07 572.279C532.802 572.279 532.545 572.173 532.356 571.984C532.167 571.795 532.061 571.538 532.061 571.27V558.826C532.061 558.559 532.167 558.302 532.356 558.113C532.545 557.924 532.802 557.817 533.07 557.817V557.817C533.337 557.817 533.594 557.924 533.783 558.113C533.972 558.302 534.078 558.559 534.078 558.826V571.27C534.078 571.538 533.972 571.795 533.783 571.984C533.594 572.173 533.337 572.279 533.07 572.279Z" fill="#065CA8"/>
<path d="M430.041 521.942C429.254 521.96 428.467 521.923 427.686 521.829C410.31 520.596 398.426 514.655 378.471 484.273C371.52 473.735 366.812 462.973 362.215 452.547C354.368 434.722 347.641 419.251 332.395 412.076C308.964 401.09 285.982 419.251 285.758 419.475C285.281 419.847 284.677 420.016 284.076 419.948C283.475 419.879 282.925 419.578 282.544 419.109C282.163 418.639 281.98 418.039 282.036 417.437C282.092 416.835 282.382 416.279 282.843 415.888C283.852 415.103 308.292 395.708 334.301 407.928C351.117 415.776 358.516 432.704 366.363 450.641C370.848 460.955 375.556 471.605 382.283 481.695C401.229 510.395 412.103 516 428.023 517.233C439.906 518.13 446.296 510.955 452.462 503.892C454.524 501.478 456.733 499.195 459.076 497.054C464.489 492.334 471.072 489.158 478.135 487.861C478.429 487.817 478.729 487.831 479.018 487.903C479.307 487.975 479.579 488.103 479.819 488.28C480.058 488.457 480.26 488.679 480.414 488.934C480.567 489.189 480.669 489.472 480.713 489.767C480.757 490.061 480.743 490.361 480.671 490.65C480.599 490.939 480.471 491.211 480.294 491.451C480.117 491.69 479.895 491.892 479.64 492.046C479.385 492.199 479.102 492.301 478.807 492.345C472.634 493.609 466.885 496.425 462.103 500.529C459.91 502.521 457.85 504.656 455.937 506.919C449.659 514.094 442.709 521.942 430.041 521.942Z" fill="#065CA8"/>
<path d="M495.288 480.126L504.705 472.167C504.93 471.975 505.192 471.832 505.474 471.745C505.756 471.658 506.053 471.629 506.347 471.661C506.64 471.692 506.925 471.783 507.182 471.928C507.439 472.073 507.665 472.268 507.844 472.503C508.175 472.938 508.324 473.485 508.262 474.028C508.199 474.571 507.929 475.069 507.508 475.418L497.979 483.826L495.288 480.126Z" fill="#065CA8"/>
<path d="M489.458 473.4L498.876 465.44C499.101 465.249 499.362 465.105 499.644 465.018C499.927 464.931 500.224 464.903 500.517 464.934C500.811 464.966 501.095 465.057 501.352 465.201C501.61 465.346 501.835 465.542 502.015 465.776C502.345 466.212 502.495 466.758 502.432 467.301C502.369 467.844 502.099 468.342 501.678 468.691L492.149 477.099L489.458 473.4Z" fill="#065CA8"/>
<path d="M501.903 484.274C498.973 487.616 495.827 490.762 492.486 493.691C486.768 498.624 479.369 497.727 476.006 493.916C475.782 493.691 475.67 493.467 475.445 493.243C473.886 491.262 473.154 488.754 473.405 486.245C473.656 483.737 474.87 481.423 476.791 479.79C481.387 475.53 489.01 469.476 489.01 469.476L498.203 480.126L501.903 484.274Z" fill="#DADFE3"/>
<path d="M501.903 484.274C498.974 487.616 495.828 490.761 492.486 493.691C486.769 498.624 479.37 497.727 476.006 493.915C475.782 493.691 475.67 493.467 475.446 493.243C479.504 493.259 483.478 492.09 486.881 489.879C490.882 486.945 494.632 483.682 498.092 480.126L501.903 484.274Z" fill="#E6EFF6"/>
<path d="M330.376 570.149H329.928C322.304 570.037 302.461 555.126 297.416 548.176C292.26 541.225 287.663 532.368 293.941 526.651C295.378 525.444 297.127 524.667 298.986 524.409C302.425 523.871 305.941 524.63 308.851 526.539C314.233 530.014 329.367 547.615 333.627 555.126C337.775 562.525 337.663 570.037 330.376 570.149Z" fill="#065CA8"/>
<path d="M330.376 570.149C331.497 569.476 332.282 568.355 332.954 566.113C334.076 562.189 330.152 554.341 317.259 539.319C309.524 530.238 302.91 526.202 298.986 524.409C302.425 523.871 305.941 524.63 308.851 526.539C314.232 530.014 329.367 547.615 333.627 555.126C337.775 562.525 337.663 570.037 330.376 570.149Z" fill="#065CA8"/>
<path d="M292.484 531.473C293.605 528.334 300.107 528.894 305.713 534.388C311.318 539.881 319.838 550.755 317.708 555.464C315.578 560.172 307.506 556.361 300.892 549.858C294.278 543.356 290.69 536.518 292.484 531.473Z" fill="#03335C"/>
<path d="M306.61 545.485C306.52 547.52 305.984 549.51 305.04 551.315C305.04 551.315 274.883 565.664 237.103 539.319C198.65 512.525 198.538 479.117 198.538 478.781C218.269 459.499 240.466 480.687 240.466 480.687C241.651 489.06 244.148 497.194 247.865 504.79C251.341 511.741 256.386 518.803 263.561 523.512C274.368 530.533 287.338 533.438 300.108 531.696C300.108 531.696 303.695 532.817 305.825 539.656C306.558 541.506 306.827 543.507 306.61 545.485Z" fill="#DADFE3"/>
<path d="M306.61 545.485C306.52 547.52 305.984 549.51 305.04 551.315C305.04 551.315 274.883 565.664 237.103 539.319C198.65 512.525 198.538 479.117 198.538 478.781C218.269 459.499 240.466 480.687 240.466 480.687C241.651 489.06 244.148 497.194 247.865 504.79C244.907 507.099 241.62 508.95 238.112 510.283C233.942 511.406 229.65 512.008 225.332 512.077C225.332 512.077 244.278 540.44 272.305 545.597C287.439 548.176 299.099 547.055 306.61 545.485Z" fill="#E6EFF6"/>
<path d="M264.345 551.201C264.042 551.199 263.747 551.1 263.505 550.919C263.263 550.737 263.085 550.482 262.999 550.192C262.929 550.008 262.896 549.812 262.903 549.615C262.91 549.418 262.957 549.225 263.041 549.047C263.124 548.869 263.243 548.71 263.39 548.579C263.537 548.448 263.71 548.348 263.896 548.286C264.008 548.286 270.062 545.932 271.856 540.999C273.003 538.099 273.122 534.894 272.192 531.918C272.052 531.56 272.056 531.163 272.202 530.808C272.348 530.452 272.626 530.168 272.977 530.012C273.334 529.872 273.732 529.876 274.087 530.022C274.442 530.168 274.727 530.446 274.883 530.797C276.057 534.462 275.939 538.42 274.546 542.008C272.192 548.286 265.129 550.864 264.793 550.976C264.749 551.054 264.683 551.117 264.603 551.157C264.523 551.197 264.433 551.212 264.345 551.201Z" fill="#E6EFF6"/>
<path d="M238.337 539.655C238.152 539.664 237.968 539.637 237.795 539.574C237.621 539.511 237.462 539.414 237.326 539.288C237.19 539.163 237.081 539.012 237.004 538.844C236.928 538.676 236.885 538.495 236.879 538.31C236.876 537.93 237.01 537.561 237.257 537.273C237.505 536.984 237.848 536.795 238.225 536.741C238.337 536.741 246.184 536.18 250.108 531.023C252.452 528.005 253.751 524.306 253.808 520.485C253.778 520.098 253.903 519.716 254.155 519.422C254.408 519.127 254.766 518.945 255.153 518.915C255.54 518.886 255.922 519.011 256.216 519.263C256.511 519.515 256.693 519.874 256.723 520.261C256.78 524.81 255.276 529.242 252.462 532.817C247.642 538.983 238.785 539.543 238.337 539.655Z" fill="#E6EFF6"/>
<path d="M185.196 518.466C184.725 519.545 184.123 520.562 183.403 521.493C182.153 523.114 180.54 524.42 178.694 525.305C177.426 525.958 176.065 526.412 174.658 526.65C174.658 526.65 158.851 511.291 145.062 483.937C131.273 456.695 130.264 425.305 130.264 425.305C131.425 424.674 132.623 424.113 133.851 423.623C137.48 422.184 141.422 421.72 145.286 422.278C148.144 422.634 150.894 423.589 153.358 425.08C153.358 425.08 154.255 451.089 163.448 474.52C172.64 498.062 186.093 511.964 186.093 511.964C186.378 514.172 186.069 516.417 185.196 518.466Z" fill="#DADFE3"/>
<path d="M185.196 518.468C180.263 514.095 170.846 504.118 161.766 484.835C150.891 461.741 146.519 432.033 145.398 422.279C148.256 422.636 151.006 423.591 153.47 425.082C153.47 425.082 154.367 451.091 163.559 474.521C172.752 498.064 186.205 511.965 186.205 511.965C186.415 514.183 186.068 516.418 185.196 518.468Z" fill="#E6EFF6"/>
<path d="M178.694 525.306C177.426 525.96 176.065 526.413 174.658 526.651C174.658 526.651 158.851 511.293 145.062 483.938C131.273 456.696 130.264 425.306 130.264 425.306C131.425 424.676 132.623 424.114 133.851 423.625C134.636 433.714 138.335 466.898 154.03 492.907C164.793 510.62 173.425 520.261 178.694 525.306Z" fill="#E6EFF6"/>
<path d="M209.974 541.449C206.104 543.546 201.621 544.221 197.306 543.355C190.467 541.786 187.889 539.544 187.889 539.544C187.889 539.544 185.646 536.18 187.328 534.274L187.552 534.05C188.996 532.854 190.742 532.079 192.597 531.808C194.73 533.477 197.066 534.871 199.548 535.956C202.463 536.965 207.62 535.956 209.525 537.189C209.903 537.465 210.19 537.847 210.349 538.286C210.509 538.725 210.534 539.202 210.422 539.656C210.415 540.28 210.262 540.895 209.974 541.449Z" fill="#DADFE3"/>
<path d="M209.974 541.449C206.104 543.546 201.621 544.22 197.306 543.355C190.467 541.785 187.889 539.543 187.889 539.543C187.889 539.543 185.646 536.18 187.328 534.274C189.346 536.18 194.167 540.328 199.772 541C203.379 541.442 207.039 540.98 210.422 539.655C210.415 540.28 210.262 540.894 209.974 541.449Z" fill="#E6EFF6"/>
<path d="M207.843 538.309C203.33 539.052 198.699 538.221 194.726 535.954C192.967 535.079 191.461 533.767 190.354 532.143C190.362 531.41 190.514 530.686 190.803 530.013C191.091 529.339 191.51 528.73 192.036 528.219C192.932 527.434 194.39 527.098 196.632 527.771C196.632 527.771 201.004 531.582 208.291 529.004C215.578 526.425 215.13 524.856 216.699 524.407C217.82 524.071 219.278 525.753 219.614 527.659C219.824 528.519 219.746 529.425 219.39 530.237C218.124 532.305 216.445 534.089 214.458 535.478C212.472 536.866 210.219 537.83 207.843 538.309Z" fill="#DADFE3"/>
<path d="M207.843 538.308C203.33 539.052 198.699 538.221 194.726 535.954C192.967 535.079 191.461 533.766 190.354 532.143C190.362 531.41 190.514 530.686 190.803 530.013C191.091 529.339 191.51 528.729 192.036 528.219C194.726 530.909 200.556 535.73 206.946 534.497C211.757 533.446 216.182 531.078 219.726 527.658C219.937 528.519 219.858 529.425 219.502 530.237C218.198 532.294 216.494 534.068 214.491 535.455C212.488 536.842 210.228 537.812 207.843 538.308Z" fill="#E6EFF6"/>
<path d="M206.61 530.911C202.327 531.64 197.924 530.847 194.166 528.669C192.483 527.872 191.049 526.632 190.018 525.082C190.034 523.657 190.596 522.293 191.587 521.27C192.484 520.485 193.829 520.149 195.959 520.822C195.959 520.822 200.107 524.409 207.058 521.943C214.009 519.476 213.56 518.019 215.018 517.571C216.027 517.234 217.484 518.916 217.82 520.71C218.026 521.533 217.947 522.403 217.596 523.176C216.41 525.164 214.818 526.88 212.926 528.212C211.033 529.545 208.881 530.465 206.61 530.911Z" fill="#DADFE3"/>
<path d="M206.61 530.911C202.327 531.64 197.924 530.847 194.166 528.669C192.483 527.872 191.049 526.631 190.018 525.082C190.034 523.657 190.596 522.293 191.587 521.27C194.053 523.848 199.659 528.445 205.713 527.212C210.262 526.177 214.446 523.93 217.82 520.709C218.026 521.533 217.947 522.403 217.596 523.176C216.41 525.164 214.818 526.88 212.926 528.212C211.033 529.545 208.881 530.465 206.61 530.911Z" fill="#E6EFF6"/>
<path d="M205.824 525.305C202.103 526.563 198.059 526.484 194.389 525.081C192.803 524.604 191.372 523.714 190.241 522.503C190.152 521.867 190.196 521.221 190.369 520.603C190.543 519.986 190.843 519.411 191.25 518.915C191.923 518.13 193.156 517.682 195.174 517.906C195.174 517.906 199.322 520.485 205.264 517.458C211.205 514.319 210.645 513.086 211.878 512.413C212.775 511.965 214.232 513.198 214.793 514.767C215.056 515.486 215.095 516.268 214.905 517.009C213.077 520.854 209.818 523.832 205.824 525.305Z" fill="#DADFE3"/>
<path d="M205.824 525.306C202.103 526.563 198.059 526.484 194.389 525.081C192.803 524.604 191.372 523.714 190.241 522.503C190.152 521.868 190.196 521.221 190.369 520.603C190.543 519.986 190.843 519.411 191.25 518.916C193.829 520.821 199.322 524.185 204.591 522.279C208.591 520.768 212.086 518.166 214.681 514.768C214.944 515.486 214.983 516.268 214.793 517.01C213.93 518.923 212.692 520.644 211.151 522.069C209.611 523.494 207.799 524.595 205.824 525.306Z" fill="#E6EFF6"/>
<path d="M201.901 519.924C201.61 521.438 201.235 522.935 200.78 524.408C199.854 527.713 198.417 530.852 196.52 533.713C195.709 534.76 194.809 535.736 193.83 536.628C192.203 538.225 190.197 539.382 188 539.991C188 539.991 179.368 531.695 176.901 528.892C175.296 527.115 173.799 525.243 172.417 523.287C172.022 521.138 172.022 518.934 172.417 516.785C172.705 514.88 173.521 513.093 174.771 511.628C175.425 510.999 176.139 510.436 176.901 509.946C179.412 508.836 182.241 508.676 184.861 509.498C184.861 509.498 193.157 514.655 196.857 516.673C198.649 517.575 200.34 518.665 201.901 519.924Z" fill="#DADFE3"/>
<path d="M201.902 519.924C201.61 521.438 201.236 522.935 200.781 524.408C197.753 522.68 194.833 520.771 192.036 518.691C187.17 515.477 182.116 512.557 176.902 509.946C179.413 508.836 182.242 508.676 184.861 509.498C184.861 509.498 193.157 514.655 196.857 516.673C198.649 517.575 200.34 518.665 201.902 519.924Z" fill="#E6EFF6"/>
<path d="M193.83 536.516C192.165 538.062 190.172 539.212 188 539.88C188 539.88 179.368 531.472 176.901 528.781C175.296 527.004 173.799 525.132 172.417 523.176C172.022 521.026 172.022 518.823 172.417 516.673C175.893 520.597 185.197 530.687 191.7 534.947C192.484 535.62 193.269 536.068 193.83 536.516Z" fill="#E6EFF6"/>
<path d="M161.767 507.816C160.803 507.742 159.857 507.515 158.965 507.143C158.644 506.959 158.406 506.658 158.302 506.303C158.198 505.948 158.234 505.566 158.404 505.237C158.477 505.075 158.581 504.928 158.711 504.806C158.841 504.684 158.993 504.588 159.16 504.526C159.327 504.463 159.505 504.434 159.683 504.441C159.861 504.448 160.036 504.49 160.198 504.565C160.31 504.677 163.449 506.134 167.597 503.444C171.745 500.753 172.418 497.39 172.418 497.278C172.43 497.094 172.484 496.915 172.574 496.754C172.664 496.593 172.788 496.454 172.938 496.347C173.088 496.24 173.26 496.167 173.441 496.134C173.623 496.101 173.809 496.109 173.987 496.157C174.348 496.25 174.662 496.473 174.868 496.783C175.075 497.094 175.161 497.469 175.108 497.838C175.108 498.062 174.323 502.547 169.054 506.022C166.856 507.328 164.32 507.952 161.767 507.816Z" fill="#E6EFF6"/>
<path d="M149.772 485.284C148.386 485.137 147.028 484.798 145.736 484.275C145.415 484.09 145.178 483.789 145.074 483.434C144.969 483.079 145.006 482.697 145.176 482.369C145.24 482.212 145.334 482.07 145.454 481.951C145.574 481.832 145.717 481.739 145.874 481.676C146.031 481.613 146.199 481.583 146.368 481.586C146.536 481.59 146.703 481.627 146.857 481.696C146.969 481.808 150.893 483.714 156.05 481.36C161.095 479.118 161.992 475.866 161.992 475.642C162.021 475.469 162.087 475.304 162.184 475.158C162.28 475.012 162.407 474.887 162.554 474.792C162.702 474.697 162.868 474.634 163.041 474.607C163.214 474.579 163.392 474.588 163.561 474.633C163.91 474.763 164.197 475.02 164.363 475.353C164.53 475.686 164.563 476.07 164.458 476.427C164.458 476.651 163.225 481.136 156.947 484.05C154.708 485.095 152.231 485.521 149.772 485.284Z" fill="#E6EFF6"/>
<path d="M141.252 460.058C139.438 460.022 137.679 459.435 136.207 458.377C135.929 458.126 135.752 457.782 135.711 457.41C135.67 457.038 135.766 456.664 135.983 456.359C136.078 456.2 136.209 456.066 136.365 455.966C136.52 455.865 136.697 455.802 136.881 455.78C137.064 455.759 137.251 455.779 137.425 455.841C137.6 455.902 137.758 456.003 137.888 456.135C138 456.135 140.467 458.04 145.96 456.919C152.911 455.462 154.817 452.771 154.929 452.659C155.026 452.505 155.154 452.373 155.305 452.271C155.457 452.169 155.628 452.1 155.807 452.069C155.987 452.037 156.171 452.043 156.348 452.087C156.525 452.131 156.69 452.211 156.835 452.323C157.113 452.573 157.289 452.917 157.33 453.289C157.372 453.661 157.275 454.035 157.059 454.341C156.835 454.677 154.368 457.928 146.521 459.722C144.791 460.094 143.015 460.207 141.252 460.058Z" fill="#E6EFF6"/>
<path d="M157.842 441.337C152.742 443.655 147.188 444.804 141.587 444.7C138.12 444.734 134.684 444.047 131.497 442.682C130.31 442.193 129.211 441.511 128.246 440.664C128.246 440.664 128.358 438.646 128.022 432.032C126.901 411.18 136.318 408.489 142.484 408.265C143.967 408.261 145.442 408.488 146.856 408.938C149.187 409.819 151.281 411.23 152.973 413.059C154.666 414.887 155.91 417.084 156.609 419.476C158.515 426.315 157.842 441.337 157.842 441.337Z" fill="#065CA8"/>
<path d="M144.053 421.158C136.991 424.969 134.076 422.503 134.076 422.503C134.076 422.503 132.394 428.22 131.61 439.543C131.497 440.664 131.497 441.785 131.385 442.682C130.198 442.193 129.1 441.511 128.134 440.664C128.134 440.664 128.246 438.646 127.91 432.032C126.789 411.18 136.206 408.489 142.372 408.265C143.855 408.261 145.331 408.488 146.744 408.938C148.538 411.965 150.556 417.682 144.053 421.158Z" fill="#065CA8"/>
<path d="M287.215 456.133C286.878 457.927 286.542 459.609 286.094 461.29C283.403 471.716 278.694 480.125 272.08 485.618C253.134 501.425 227.125 509.833 193.717 488.196C167.035 470.932 142.484 431.806 133.627 416.672C131.385 412.86 130.152 410.506 130.152 410.506C130.152 410.506 145.511 409.721 169.726 398.622C181.668 393.038 193.108 386.437 203.919 378.891C225.78 363.645 238.448 349.407 245.735 338.308C254.367 325.304 255.6 316.784 255.6 316.784C255.6 316.784 257.73 320.707 261.43 329.34C268.746 347.164 275.034 365.392 280.264 383.936C288.448 412.187 290.69 437.187 287.215 456.133Z" fill="#DADFE3"/>
<path d="M261.43 329.34C258.266 335.551 254.631 341.51 250.556 347.165C238.791 363.041 224.197 376.609 207.506 387.188C196.922 394.141 185.787 400.215 174.21 405.349C154.255 414.206 140.466 416.223 133.515 416.56C131.273 412.748 130.04 410.394 130.04 410.394C130.04 410.394 145.399 409.609 169.614 398.51C181.556 392.926 192.996 386.325 203.807 378.779C225.668 363.533 238.336 349.295 245.623 338.197C254.255 325.192 255.488 316.672 255.488 316.672C257.69 320.788 259.673 325.016 261.43 329.34Z" fill="#065CA8"/>
<path d="M286.094 461.291C283.403 471.717 278.694 480.125 272.08 485.618C253.134 501.425 227.125 509.833 193.717 488.197C167.035 470.932 142.484 431.806 133.627 416.672C131.385 412.86 130.152 410.506 130.152 410.506C130.152 410.506 145.511 409.721 169.726 398.623C179.255 413.421 200.331 444.026 221.071 462.075C245.174 483.152 272.641 470.708 286.094 461.291Z" fill="#E6EFF6"/>
<path d="M174.21 405.461C154.255 414.318 140.466 416.336 133.515 416.672C131.273 412.86 130.04 410.506 130.04 410.506C130.04 410.506 145.399 409.721 169.614 398.623C170.959 400.64 172.529 402.995 174.21 405.461Z" fill="#8CB4D7"/>
<path d="M284.076 445.259C281.273 433.712 277.461 419.138 272.641 403.667C264.905 378.555 256.161 359.161 251.34 350.753C258.067 340.551 259.3 336.403 259.3 336.403C259.3 336.403 260.982 339.542 263.896 346.268C269.598 360.216 274.501 374.477 278.582 388.981C285.085 410.954 286.878 430.461 284.076 445.259Z" fill="#E6EFF6"/>
<path d="M261.43 329.34C258.266 335.551 254.631 341.51 250.556 347.165C248.762 343.69 247.193 340.663 245.735 338.197C254.368 325.192 255.601 316.672 255.601 316.672C255.601 316.672 257.843 320.82 261.43 329.34Z" fill="#065CA8"/>
<path d="M226.34 454.678C226.34 454.678 216.251 462.301 195.735 470.821C190.018 473.175 184.412 475.193 179.367 476.875L178.022 475.53C163.672 461.74 150.78 443.915 142.036 430.462C141.475 429.678 141.027 428.893 140.578 428.22C152.285 425.071 163.72 420.985 174.771 416C193.717 407.592 198.538 403.781 198.538 403.781L226.34 454.678Z" fill="#DADFE3"/>
<path d="M223.201 454.566C223.201 454.566 214.121 461.853 194.838 469.476C188.896 471.83 182.955 473.848 177.91 475.53C163.56 461.74 150.668 443.915 141.923 430.462L143.717 430.014C154.525 427.042 165.094 423.257 175.331 418.691C192.82 410.844 197.753 408.265 197.753 408.265L223.201 454.566Z" fill="#065CA8"/>
<path d="M173.2 458.937C172.835 458.946 172.478 458.827 172.191 458.601L159.859 447.615L159.074 449.969C159.012 450.155 158.912 450.327 158.781 450.475C158.651 450.622 158.491 450.741 158.313 450.824C158.135 450.908 157.942 450.955 157.745 450.962C157.548 450.969 157.352 450.936 157.169 450.866C156.982 450.803 156.81 450.703 156.663 450.573C156.516 450.442 156.397 450.282 156.313 450.104C156.229 449.926 156.182 449.733 156.175 449.536C156.168 449.34 156.201 449.143 156.272 448.96L157.841 444.476C157.931 444.247 158.067 444.039 158.24 443.866C158.414 443.692 158.622 443.556 158.85 443.467C159.103 443.414 159.364 443.417 159.616 443.475C159.867 443.533 160.104 443.645 160.308 443.803L171.182 453.444L170.622 449.072C170.556 448.746 170.611 448.408 170.776 448.119C170.941 447.83 171.204 447.611 171.518 447.502L208.626 431.471C208.81 431.389 209.008 431.343 209.21 431.338C209.411 431.333 209.611 431.368 209.799 431.441C209.987 431.514 210.158 431.624 210.303 431.764C210.448 431.904 210.564 432.071 210.644 432.256C210.726 432.44 210.771 432.638 210.777 432.839C210.782 433.041 210.747 433.241 210.674 433.429C210.601 433.617 210.491 433.788 210.351 433.933C210.211 434.078 210.044 434.194 209.859 434.274L173.761 449.857L174.77 457.144C174.819 457.454 174.77 457.773 174.629 458.055C174.489 458.336 174.263 458.566 173.985 458.713C173.735 458.825 173.471 458.901 173.2 458.937Z" fill="#EEF0F2"/>
<path d="M255.6 316.784C255.6 316.784 253.919 328.78 241.026 345.484C233.627 355.125 222.417 366.336 205.6 377.771C178.022 396.605 156.273 404.565 143.269 408.04C138.946 409.276 134.517 410.101 130.04 410.506C130.04 410.506 101.901 362.524 106.497 319.027C107.73 307.704 111.206 298.287 116.475 290.551C120.219 284.98 124.926 280.12 130.376 276.201C145.959 264.991 166.923 261.067 187.327 263.533C224.547 268.13 255.6 316.784 255.6 316.784Z" fill="#DADFE3"/>
<path d="M255.601 316.784C255.601 316.784 254.816 322.165 250.556 330.685C247.883 335.96 244.691 340.954 241.027 345.595C233.627 355.237 222.417 366.447 205.601 377.882C175.892 398.062 152.91 405.797 140.466 408.824C137.041 409.684 133.556 410.284 130.04 410.618C130.04 410.281 130.152 384.497 172.08 351.761C214.233 318.69 255.601 316.784 255.601 316.784Z" fill="#DADFE3"/>
<path d="M250.556 330.686C247.884 335.961 244.691 340.955 241.027 345.596C233.628 355.238 222.417 366.448 205.601 377.883C175.893 398.063 152.911 405.798 140.467 408.825C145.175 398.063 155.489 382.143 178.695 363.982C199.69 347.375 224.313 335.966 250.556 330.686V330.686Z" fill="#D3D9DD"/>
<path d="M255.6 316.784C255.6 316.784 253.918 328.78 241.026 345.484C237.005 338.47 232.471 331.762 227.461 325.417C227.461 325.417 210.981 340.327 197.528 329.677C184.075 318.914 194.165 299.184 194.165 299.184C184.313 289.557 171.964 282.877 158.515 279.901C149.213 277.908 139.765 276.671 130.264 276.201C145.847 264.991 166.811 261.067 187.214 263.533C224.546 268.13 255.6 316.784 255.6 316.784Z" fill="#EEF0F2"/>
<path d="M143.38 408.04C139.058 409.275 134.629 410.101 130.152 410.506C130.152 410.506 102.013 362.524 106.609 319.026C107.842 307.703 111.318 298.286 116.587 290.551C114.372 315.801 117.114 341.24 124.658 365.439C129.399 380.252 135.673 394.53 143.38 408.04Z" fill="#EEF0F2"/>
<path d="M271.408 603.331C271.424 604.043 271.387 604.755 271.296 605.461C270.848 612.076 250.556 613.309 236.431 613.982C222.53 614.654 207.843 610.73 212.888 606.134L213.112 605.91C216.7 602.883 223.651 599.408 231.386 596.605C235.858 594.951 240.426 593.566 245.063 592.457C251.117 591 263.449 588.085 267.485 591.112C268.327 591.779 269.015 592.62 269.503 593.578C270.878 596.64 271.53 599.977 271.408 603.331Z" fill="#065CA8"/>
<path d="M271.408 603.332C271.424 604.044 271.387 604.756 271.296 605.462C270.848 612.076 250.556 613.31 236.431 613.982C222.53 614.655 207.843 610.731 212.888 606.135C215.915 607.928 222.53 610.058 236.319 609.498C255.153 608.713 266.588 605.574 271.408 603.332Z" fill="#065CA8"/>
<path d="M269.389 593.578C268.171 594.654 266.814 595.559 265.353 596.269C259.972 598.959 243.604 601.874 233.626 600.192C229.254 599.408 229.59 598.062 231.272 596.605C235.744 594.951 240.312 593.566 244.949 592.457C251.003 591 263.335 588.085 267.371 591.112C268.213 591.779 268.901 592.62 269.389 593.578Z" fill="#03335C"/>
<path d="M244.165 539.766C248.65 568.466 265.017 590.439 265.017 590.439C263.712 592.126 262.118 593.568 260.309 594.699C258.801 595.643 257.182 596.397 255.488 596.941C252.642 597.712 249.675 597.941 246.744 597.614C244.852 597.426 242.978 597.088 241.139 596.605C241.139 596.605 213.224 560.618 209.748 519.587C206.273 478.555 228.358 457.928 228.358 457.928C228.523 457.838 228.674 457.725 228.807 457.591C232.41 455.371 236.554 454.186 240.787 454.166C245.019 454.146 249.174 455.293 252.798 457.479C253.613 457.914 254.399 458.401 255.152 458.937C264.233 464.878 265.578 470.932 265.578 470.932C261.336 474.851 257.708 479.386 254.816 484.385C250.219 492.233 239.681 511.067 244.165 539.766Z" fill="#DADFE3"/>
<path d="M244.166 539.766C248.65 568.466 265.018 590.439 265.018 590.439C263.712 592.126 262.118 593.568 260.309 594.699C252.125 583.376 232.506 549.071 233.179 516.448C233.74 486.627 249.21 465.887 255.264 458.937C264.345 464.878 265.69 470.932 265.69 470.932C261.449 474.851 257.821 479.386 254.928 484.385C250.219 492.232 239.681 511.067 244.166 539.766Z" fill="#E6EFF6"/>
<path d="M246.632 597.502C244.74 597.314 242.865 596.976 241.026 596.493C241.026 596.493 213.111 560.506 209.636 519.475C206.161 478.444 228.246 457.816 228.246 457.816C228.411 457.726 228.562 457.613 228.694 457.479C224.434 466.224 214.905 488.87 215.802 514.43C216.923 547.278 231.161 572.614 241.138 588.758C243.044 592.009 244.95 594.923 246.632 597.502Z" fill="#E6EFF6"/>
<path d="M225.332 568.353C225.14 568.363 224.949 568.328 224.774 568.25C224.598 568.172 224.444 568.054 224.323 567.905C224.039 567.629 223.87 567.256 223.849 566.862C223.829 566.467 223.958 566.078 224.211 565.775C227.023 563.195 230.402 561.313 234.076 560.281C240.691 558.263 247.978 560.505 248.314 560.618C248.695 560.744 249.013 561.013 249.201 561.368C249.389 561.723 249.433 562.137 249.323 562.523C249.196 562.905 248.927 563.222 248.572 563.41C248.217 563.598 247.803 563.642 247.417 563.532C247.305 563.532 240.691 561.514 234.973 563.196C229.256 564.99 226.453 567.792 226.453 567.905C226.316 568.064 226.143 568.189 225.948 568.267C225.752 568.345 225.541 568.375 225.332 568.353Z" fill="#E6EFF6"/>
<path d="M213.78 532.479C213.505 532.488 213.233 532.419 212.995 532.28C212.757 532.141 212.563 531.938 212.435 531.694C212.325 531.519 212.251 531.324 212.22 531.119C212.188 530.915 212.199 530.707 212.252 530.507C212.304 530.307 212.397 530.12 212.525 529.958C212.653 529.796 212.814 529.661 212.996 529.564C217.423 527.143 222.314 525.691 227.345 525.304C232.407 525.172 237.384 526.622 241.583 529.452C241.751 529.565 241.894 529.711 242.003 529.882C242.111 530.052 242.184 530.243 242.215 530.443C242.247 530.643 242.237 530.848 242.186 531.043C242.135 531.239 242.044 531.422 241.919 531.582C241.806 531.75 241.66 531.892 241.489 532.001C241.319 532.11 241.128 532.182 240.928 532.214C240.728 532.246 240.524 532.236 240.328 532.185C240.132 532.134 239.949 532.043 239.789 531.918C239.677 531.918 234.072 527.994 227.458 528.331C222.888 528.674 218.45 530.014 214.453 532.254C214.341 532.479 214.005 532.479 213.78 532.479Z" fill="#E6EFF6"/>
<path d="M244.502 502.878C244.31 502.888 244.119 502.853 243.943 502.775C243.768 502.697 243.614 502.579 243.493 502.43C243.381 502.318 235.085 494.806 226.789 493.797C218.717 492.789 213.784 496.264 213.784 496.376C213.453 496.603 213.048 496.694 212.652 496.632C212.256 496.569 211.899 496.357 211.654 496.04C211.428 495.709 211.336 495.304 211.399 494.908C211.461 494.512 211.673 494.154 211.99 493.91C212.215 493.685 217.932 489.537 227.237 490.771C236.43 492.004 245.174 499.851 245.623 500.188C245.776 500.316 245.901 500.475 245.991 500.654C246.08 500.833 246.132 501.028 246.142 501.228C246.153 501.428 246.122 501.628 246.052 501.815C245.982 502.003 245.874 502.174 245.735 502.318C245.387 502.621 244.959 502.816 244.502 502.878Z" fill="#E6EFF6"/>
<path d="M342.375 471.044C340.765 475.788 337.657 479.88 333.518 482.703C326.792 487.075 322.98 487.523 322.98 487.523C322.98 487.523 318.608 486.851 318.608 484.048V483.712C318.882 481.634 319.694 479.663 320.962 477.994C324.001 477.465 326.971 476.601 329.819 475.416C332.958 473.846 336.321 468.802 338.787 468.241C339.296 468.148 339.821 468.205 340.298 468.404C340.776 468.603 341.185 468.936 341.478 469.362C341.891 469.854 342.196 470.427 342.375 471.044Z" fill="#DADFE3"/>
<path d="M342.375 471.043C340.765 475.787 337.657 479.879 333.518 482.702C326.792 487.075 322.98 487.523 322.98 487.523C322.98 487.523 318.608 486.85 318.608 484.048C321.635 483.824 328.81 482.927 333.855 478.891C337.118 476.321 339.73 473.018 341.478 469.25C341.882 469.789 342.186 470.396 342.375 471.043Z" fill="#E6EFF6"/>
<path d="M338.226 470.483C335.146 474.728 330.784 477.872 325.782 479.452C323.754 480.255 321.554 480.525 319.392 480.236C318.824 479.687 318.38 479.023 318.09 478.288C317.8 477.554 317.671 476.765 317.711 475.976C317.823 474.631 318.72 473.174 321.074 471.828C321.074 471.828 327.464 471.043 331.5 463.196C335.536 455.348 333.854 454.564 334.863 452.994C335.536 451.873 338.002 451.985 339.684 452.994C340.504 453.454 341.109 454.22 341.365 455.124C342.374 457.927 342.262 464.99 338.226 470.483Z" fill="#DADFE3"/>
<path d="M338.226 470.482C335.146 474.728 330.784 477.872 325.782 479.451C323.754 480.254 321.554 480.525 319.392 480.236C318.824 479.687 318.38 479.023 318.09 478.288C317.8 477.553 317.671 476.765 317.711 475.976C321.859 475.751 330.379 474.63 334.527 468.465C337.626 463.875 339.41 458.525 339.684 452.994C340.504 453.453 341.109 454.219 341.365 455.124C342.374 457.926 342.262 464.989 338.226 470.482Z" fill="#E6EFF6"/>
<path d="M330.715 467.008C327.782 471.061 323.611 474.051 318.831 475.528C316.904 476.267 314.82 476.499 312.777 476.201C312.24 475.682 311.821 475.052 311.55 474.355C311.279 473.658 311.162 472.911 311.208 472.165C311.32 470.932 312.217 469.474 314.459 468.241C314.459 468.241 320.513 467.569 324.325 460.057C328.136 452.658 326.567 451.874 327.464 450.304C328.136 449.295 330.378 449.295 332.06 450.304C332.845 450.753 333.442 451.469 333.742 452.322C334.638 455.125 334.526 461.851 330.715 467.008Z" fill="#DADFE3"/>
<path d="M330.715 467.007C327.782 471.06 323.611 474.051 318.831 475.528C316.904 476.267 314.82 476.498 312.777 476.2C312.24 475.681 311.821 475.051 311.55 474.355C311.279 473.658 311.162 472.911 311.208 472.164C315.132 471.94 323.203 470.931 327.239 465.102C330.138 460.721 331.839 455.658 332.172 450.416C332.957 450.864 333.554 451.58 333.854 452.433C334.346 454.949 334.322 457.538 333.783 460.043C333.243 462.549 332.199 464.918 330.715 467.007Z" fill="#E6EFF6"/>
<path d="M327.688 476.985C327.779 479.724 327.242 482.446 326.118 484.945C325.466 486.378 324.596 487.702 323.54 488.869C323.54 488.869 295.176 498.846 265.356 473.958C249.997 461.178 237.665 444.474 229.369 431.358C224.895 424.341 220.816 417.08 217.15 409.609C217.15 409.609 214.795 402.322 219.168 396.044C220.808 393.667 223.052 391.771 225.67 390.55C230.939 387.86 235.311 387.636 238.786 388.532C242.351 389.472 245.529 391.512 247.867 394.362C247.867 394.362 252.239 404.003 258.742 415.887C266.365 429.676 276.903 446.492 286.993 454.34C305.715 468.914 321.298 463.308 321.298 463.308C322.549 464.62 323.675 466.046 324.661 467.568C325.894 469.923 327.576 473.286 327.688 476.985Z" fill="#DADFE3"/>
<path d="M258.404 415.663C254.764 421.381 249.319 425.721 242.933 427.995C238.508 429.708 233.868 430.802 229.144 431.246C224.67 424.229 220.59 416.968 216.924 409.497C216.924 409.497 212.888 396.829 225.332 390.327C239.346 383.04 247.529 394.138 247.529 394.138C247.529 394.138 251.902 403.892 258.404 415.663Z" fill="#E6EFF6"/>
<path d="M326.005 484.833C325.353 486.266 324.484 487.59 323.427 488.757C323.427 488.757 295.064 498.734 265.243 473.846C249.884 461.066 237.552 444.362 229.257 431.246C224.782 424.229 220.703 416.968 217.037 409.497C217.037 409.497 214.683 402.21 219.055 395.932C222.754 404.34 238.561 438.645 258.629 458.376C281.611 480.909 294.055 483.712 316.14 484.609C319.727 484.721 323.091 484.833 326.005 484.833Z" fill="#E6EFF6"/>
<path d="M324.324 467.457C318.606 469.138 310.647 470.372 302.351 467.793C286.88 462.972 274.212 453.219 261.768 434.497C251.566 419.026 241.701 396.156 238.562 388.421C242.126 389.36 245.304 391.4 247.642 394.25C247.642 394.25 252.014 403.892 258.517 415.775C266.14 429.564 276.678 446.381 286.768 454.228C305.49 468.802 321.073 463.197 321.073 463.197C322.299 464.502 323.389 465.929 324.324 467.457Z" fill="#E6EFF6"/>
<path d="M246.631 449.855C245.037 449.861 243.451 449.634 241.923 449.183C241.542 449.03 241.237 448.733 241.074 448.357C240.91 447.981 240.901 447.556 241.048 447.173C241.195 446.79 241.487 446.481 241.86 446.312C242.234 446.142 242.659 446.126 243.044 446.268C243.268 446.38 248.537 448.174 255.6 444.362C259.812 442.005 262.947 438.107 264.344 433.488C264.388 433.296 264.47 433.115 264.584 432.955C264.698 432.795 264.842 432.66 265.009 432.555C265.176 432.451 265.361 432.381 265.555 432.349C265.748 432.316 265.947 432.322 266.138 432.366C266.329 432.411 266.51 432.492 266.67 432.606C266.83 432.72 266.966 432.865 267.07 433.031C267.174 433.198 267.244 433.383 267.277 433.577C267.309 433.771 267.303 433.969 267.259 434.16C266.489 436.89 265.18 439.437 263.408 441.651C261.637 443.866 259.439 445.702 256.945 447.053C253.811 448.872 250.255 449.839 246.631 449.855Z" fill="#E6EFF6"/>
<path d="M268.046 474.969C267.629 474.969 267.23 474.803 266.936 474.509C266.641 474.214 266.476 473.815 266.476 473.399C266.476 472.983 266.641 472.584 266.936 472.289C267.23 471.995 267.629 471.83 268.046 471.83C268.158 471.83 275.108 471.717 279.032 466.897C283.068 461.964 282.283 455.013 282.283 454.901C282.261 454.702 282.278 454.501 282.334 454.309C282.389 454.117 282.482 453.938 282.607 453.781C282.732 453.625 282.887 453.495 283.062 453.399C283.237 453.302 283.43 453.242 283.629 453.22C284.027 453.192 284.42 453.315 284.732 453.564C285.043 453.813 285.25 454.171 285.31 454.565C285.31 454.901 286.207 462.861 281.386 468.803C276.566 474.969 268.382 474.969 268.046 474.969Z" fill="#E6EFF6"/>
<path d="M292.708 488.084C292.391 488.086 292.081 487.99 291.82 487.809C291.559 487.629 291.361 487.372 291.251 487.075C291.104 486.688 291.116 486.259 291.284 485.881C291.452 485.503 291.762 485.207 292.148 485.057C294.113 484.193 295.859 482.898 297.256 481.268C298.653 479.638 299.666 477.714 300.219 475.64C301.901 468.689 299.547 464.653 299.435 464.541C299.226 464.195 299.156 463.783 299.239 463.388C299.323 462.992 299.553 462.643 299.883 462.411C300.229 462.202 300.641 462.133 301.036 462.216C301.432 462.299 301.781 462.529 302.013 462.859C302.125 463.084 305.264 468.128 303.134 476.312C302.45 478.865 301.197 481.23 299.469 483.23C297.741 485.229 295.583 486.812 293.157 487.859C293.044 488.084 292.932 488.084 292.708 488.084Z" fill="#E6EFF6"/>
<path d="M259.297 402.211C259.066 403.361 258.728 404.487 258.288 405.574C256.718 409.386 253.019 415.664 244.611 421.157C231.606 429.565 220.059 425.978 220.059 425.978C214.669 418.289 211.244 409.398 210.082 400.081C209.073 391.448 214.79 384.722 222.189 381.471C227.682 379.117 234.073 378.668 239.23 380.91C251.449 386.404 259.297 402.211 259.297 402.211Z" fill="#065CA8"/>
<path d="M259.302 402.211C259.071 403.361 258.733 404.487 258.293 405.574C258.293 405.462 258.181 405.462 258.181 405.35C247.755 391.561 239.571 388.758 239.571 388.758C239.571 388.758 236.544 395.933 226.566 391.785C219.616 388.982 220.849 384.049 222.306 381.471C227.799 379.117 234.19 378.668 239.347 380.91C251.454 386.404 259.302 402.211 259.302 402.211Z" fill="#065CA8"/>
<path d="M123.089 342.906C122.082 342.736 121.048 342.953 120.195 343.515C119.342 344.077 118.734 344.941 118.493 345.933C117.123 351.593 116.038 357.318 115.241 363.086C114.681 367.794 114.457 371.718 114.345 374.409C114.316 375.359 114.628 376.288 115.224 377.028C115.82 377.768 116.661 378.27 117.596 378.444C118.121 378.528 118.657 378.503 119.172 378.371C119.687 378.239 120.17 378.003 120.59 377.677C121.01 377.351 121.359 376.943 121.615 376.477C121.872 376.012 122.03 375.498 122.08 374.969C122.423 369.997 123.097 365.053 124.098 360.171C125.219 354.453 126.004 350.418 126.564 347.727C126.708 346.632 126.428 345.524 125.782 344.628C125.136 343.732 124.173 343.117 123.089 342.906Z" fill="#065CA8"/>
<path d="M103.695 354.901C103.811 354.374 104.045 353.88 104.379 353.456C104.712 353.032 105.138 352.689 105.623 352.451C106.107 352.214 106.64 352.09 107.179 352.087C107.719 352.084 108.252 352.203 108.74 352.435C112.103 353.892 117.036 356.023 121.744 357.704C126.565 359.386 131.049 361.067 133.852 362.188C134.771 362.532 135.53 363.202 135.985 364.071C136.44 364.94 136.559 365.946 136.318 366.897C136.187 367.41 135.953 367.891 135.632 368.312C135.31 368.732 134.907 369.084 134.447 369.345C133.987 369.607 133.478 369.773 132.952 369.834C132.426 369.895 131.893 369.849 131.386 369.7C126.047 368.19 120.805 366.356 115.69 364.206C112.063 362.69 108.542 360.929 105.152 358.937C104.544 358.479 104.082 357.853 103.823 357.136C103.564 356.42 103.52 355.643 103.695 354.901Z" fill="#065CA8"/>
<path d="M171.291 315.552C169.975 315.358 168.634 315.665 167.534 316.413C166.434 317.16 165.654 318.293 165.349 319.588C164.116 325.193 162.322 334.61 161.537 342.009C160.977 348.175 160.64 353.22 160.64 356.695C160.593 357.916 161.003 359.111 161.792 360.044C162.58 360.978 163.689 361.583 164.901 361.74C165.583 361.845 166.279 361.806 166.945 361.628C167.612 361.449 168.233 361.133 168.771 360.701C169.309 360.268 169.751 359.729 170.069 359.116C170.387 358.504 170.574 357.832 170.618 357.144C170.842 352.659 171.515 345.821 172.748 337.973C173.981 330.462 174.99 325.193 175.551 321.718C175.702 321.031 175.711 320.32 175.575 319.63C175.44 318.94 175.164 318.285 174.764 317.707C174.364 317.128 173.849 316.638 173.252 316.267C172.654 315.897 171.987 315.653 171.291 315.552Z" fill="#065CA8"/>
<path d="M146.404 331.694C146.561 331.016 146.863 330.38 147.29 329.83C147.717 329.28 148.259 328.83 148.877 328.51C149.496 328.19 150.176 328.008 150.872 327.977C151.568 327.947 152.262 328.067 152.906 328.331C157.278 330.125 163.668 332.703 169.834 334.833C176.112 336.963 181.942 338.981 185.641 340.327C186.842 340.747 187.842 341.601 188.443 342.722C189.045 343.842 189.205 345.148 188.892 346.38C188.73 347.054 188.434 347.689 188.023 348.247C187.612 348.805 187.094 349.275 186.499 349.63C185.904 349.985 185.244 350.218 184.557 350.314C183.871 350.411 183.172 350.369 182.502 350.192C175.565 348.386 168.75 346.14 162.099 343.466C157.365 341.641 152.791 339.429 148.422 336.851C147.634 336.268 147.028 335.475 146.671 334.563C146.314 333.651 146.221 332.657 146.404 331.694Z" fill="#065CA8"/>
<path d="M550.78 529.789C554.576 531.065 557.976 533.306 560.646 536.291C564.794 541.224 565.354 549.183 565.354 549.183L588 538.645C588 538.645 576.565 543.017 572.753 535.394C568.942 527.771 581.61 515.663 581.61 515.663C581.61 515.663 567.596 527.098 562.103 525.416C556.61 523.735 555.713 516.896 555.713 516.896L550.78 529.789Z" fill="#DADFE3"/>
<path d="M529.369 527.21L533.405 527.322L539.683 481.358L525.445 478.667L529.369 527.21Z" fill="#D9E8DD"/>
<path d="M539.234 527.434L548.651 484.384L562.216 490.999L541.701 528.555L539.234 527.434Z" fill="#D9E8DD"/>
<path d="M90.5783 310.17L88.224 315.327L39.0088 300.192L45.6231 280.798L90.5783 310.17Z" fill="#DADFE3"/>
<path d="M97.9776 293.13L93.6054 299.408L38 257.031L53.3587 241L97.9776 293.13Z" fill="#DADFE3"/>
</g>
<defs>
<clipPath id="clip0_2492_4738">
<rect width="550" height="378.363" fill="white" transform="translate(38 241)"/>
</clipPath>
</defs>
</svg>
