<svg width="65" height="64" viewBox="0 0 65 64" fill="none" xmlns="http://www.w3.org/2000/svg">
<path d="M50.5 21.333V26.933C49.3267 26.773 47.9933 26.693 46.5 26.6663V21.333C46.5 12.933 44.1267 7.33301 32.5 7.33301C20.8733 7.33301 18.5 12.933 18.5 21.333V26.6663C17.0067 26.693 15.6733 26.773 14.5 26.933V21.333C14.5 13.5997 16.3667 3.33301 32.5 3.33301C48.6333 3.33301 50.5 13.5997 50.5 21.333Z" fill="#0B0A07"/>
<path opacity="0.4" d="M59.1668 40.0003V45.3337C59.1668 56.0003 56.5002 58.667 45.8335 58.667H19.1668C8.50016 58.667 5.8335 56.0003 5.8335 45.3337V40.0003C5.8335 31.0937 7.70016 27.7603 14.5002 26.9337C15.6735 26.7737 17.0068 26.6937 18.5002 26.667H46.5002C47.9935 26.6937 49.3268 26.7737 50.5002 26.9337C57.3002 27.7603 59.1668 31.0937 59.1668 40.0003Z" fill="#065CA8"/>
<path d="M21.8332 45.3333C21.4865 45.3333 21.1398 45.2533 20.8198 45.12C20.4732 44.9866 20.2065 44.8 19.9399 44.56C19.4599 44.0533 19.1665 43.36 19.1665 42.6666C19.1665 42.32 19.2465 41.9733 19.3798 41.6533C19.5131 41.3333 19.6999 41.0399 19.9399 40.7733C20.2065 40.5333 20.4732 40.3466 20.8198 40.2133C21.8065 39.7866 22.9798 40.0266 23.7265 40.7733C23.9665 41.0399 24.1532 41.3333 24.2865 41.6533C24.4199 41.9733 24.4998 42.32 24.4998 42.6666C24.4998 43.36 24.2065 44.0533 23.7265 44.56C23.2198 45.04 22.5265 45.3333 21.8332 45.3333Z" fill="#0B0A07"/>
<path d="M32.5002 45.3332C31.7802 45.3332 31.1135 45.0399 30.6069 44.5599C30.3669 44.2932 30.1801 43.9999 30.0468 43.6799C29.9135 43.3599 29.8335 43.0132 29.8335 42.6666C29.8335 41.9466 30.1269 41.2799 30.6069 40.7732C31.5935 39.7865 33.3801 39.7865 34.3935 40.7732C34.8735 41.2799 35.1668 41.9466 35.1668 42.6666C35.1668 43.0132 35.0869 43.3599 34.9535 43.6799C34.8202 43.9999 34.6335 44.2932 34.3935 44.5599C33.8868 45.0399 33.1935 45.3332 32.5002 45.3332Z" fill="#0B0A07"/>
<path d="M43.1667 45.3332C42.4733 45.3332 41.78 45.0399 41.2734 44.5599C40.7934 44.0532 40.5 43.3866 40.5 42.6666C40.5 41.9466 40.7934 41.2799 41.2734 40.7732C42.2867 39.7865 44.0733 39.7865 45.06 40.7732C45.1666 40.9065 45.2733 41.0399 45.38 41.1999C45.4866 41.3332 45.5667 41.4932 45.62 41.6532C45.7 41.8132 45.7534 41.9732 45.78 42.1332C45.8067 42.3199 45.8333 42.5066 45.8333 42.6666C45.8333 43.3599 45.54 44.0532 45.06 44.5599C44.5533 45.0399 43.86 45.3332 43.1667 45.3332Z" fill="#0B0A07"/>
</svg>
