<svg width="65" height="64" viewBox="0 0 65 64" fill="none" xmlns="http://www.w3.org/2000/svg">
<path d="M52.5002 21.3333C56.1821 21.3333 59.1668 18.3486 59.1668 14.6667C59.1668 10.9848 56.1821 8 52.5002 8C48.8183 8 45.8335 10.9848 45.8335 14.6667C45.8335 18.3486 48.8183 21.3333 52.5002 21.3333Z" fill="#0B0A07"/>
<path d="M52.5002 21.3333C56.1821 21.3333 59.1668 18.3486 59.1668 14.6667C59.1668 10.9848 56.1821 8 52.5002 8C48.8183 8 45.8335 10.9848 45.8335 14.6667C45.8335 18.3486 48.8183 21.3333 52.5002 21.3333Z" fill="#065CA8"/>
<path opacity="0.4" d="M55.7535 24.8265C57.4335 24.2932 59.1668 25.5999 59.1668 27.3866V41.3599C59.1668 50.6932 53.8335 54.6932 45.8335 54.6932H19.1668C11.1668 54.6932 5.8335 50.6932 5.8335 41.3599V22.6932C5.8335 13.3599 11.1668 9.35986 19.1668 9.35986H39.4601C41.1935 9.35986 42.3668 10.9599 42.0468 12.6399C41.7268 14.2132 41.7802 15.8932 42.2602 17.6265C43.2468 21.1999 46.1535 24.0532 49.7268 24.9865C51.8335 25.5199 53.8868 25.4132 55.7535 24.8265Z" fill="#065CA8"/>
<path d="M32.4997 34.3199C30.2597 34.3199 27.9931 33.6266 26.2597 32.2132L17.9131 25.5466C17.0597 24.8532 16.8997 23.5999 17.5931 22.7466C18.2864 21.8932 19.5397 21.7332 20.393 22.4266L28.7397 29.0932C30.7664 30.7199 34.2064 30.7199 36.233 29.0932L39.3797 26.5866C40.233 25.8932 41.5131 26.0266 42.1797 26.9066C42.8731 27.7599 42.7398 29.0399 41.8598 29.7066L38.713 32.2132C37.0064 33.6266 34.7397 34.3199 32.4997 34.3199Z" fill="#065CA8"/>
</svg>
