<svg width="100" height="32" viewBox="0 0 100 32" fill="none" xmlns="http://www.w3.org/2000/svg">
<g clip-path="url(#clip0_2364_2826)">
<path d="M44.6537 12.2368V12.7487C44.6537 12.7487 43.6871 11.4688 41.6423 11.4688C38.2591 11.4688 35.6318 14.1311 35.6318 17.8047C35.6318 21.4527 38.2343 24.1408 41.6423 24.1408C43.7243 24.1408 44.6537 22.8223 44.6537 22.8223V23.3728C44.6537 23.6287 44.8396 23.8208 45.0875 23.8208H47.6032V11.7887H45.0875C44.8396 11.7887 44.6537 12.0064 44.6537 12.2368ZM44.6537 19.9551C44.1952 20.6592 43.2534 21.2736 42.138 21.2736C40.1552 21.2736 38.6309 19.9936 38.6309 17.8175C38.6309 15.6416 40.1552 14.3616 42.138 14.3616C43.2286 14.3616 44.22 15.0015 44.6537 15.6799V19.9551Z" fill="#ADB7C2"/>
<path d="M52.4362 11.7891H49.4619V23.8339H52.4362V11.7891Z" fill="#ADB7C2"/>
<path d="M28.5553 21.5937C28.3075 21.0177 28.0596 20.4673 27.8366 19.9553L27.7994 19.9297C25.6554 15.1297 23.3628 10.2529 20.9462 5.45291L20.8719 5.2481C20.6116 4.7489 20.3638 4.2497 20.1283 3.7377C19.8185 3.1617 19.5087 2.5473 19.013 1.9713C18.0215 0.691305 16.5964 -0.0126953 15.0721 -0.0126953C13.523 -0.0126953 12.1226 0.691305 11.1064 1.9073C10.6355 2.4833 10.3009 3.0977 9.99106 3.6737C9.74321 4.1729 9.49535 4.68491 9.2475 5.1841L9.14836 5.3761C6.75656 10.1761 4.43913 15.0529 2.29519 19.8529L2.25801 19.9297C2.04733 20.4417 1.78709 20.9921 1.53923 21.5681C1.37813 21.9265 1.22941 22.3105 1.0807 22.7201C0.671741 23.9105 0.547814 25.0241 0.70892 26.1761C1.05592 28.5825 2.605 30.5921 4.73655 31.4881C5.55447 31.8465 6.38478 32.0001 7.25227 32.0001C7.50013 32.0001 7.80994 31.9745 8.0578 31.9361C9.08639 31.8081 10.1398 31.4625 11.156 30.8481C12.4324 30.1057 13.6345 29.0561 14.9977 27.5201C16.3609 29.0561 17.6002 30.1185 18.8395 30.8481C19.8681 31.4625 20.9214 31.8081 21.9376 31.9361C22.1855 31.9745 22.4953 32.0001 22.7432 32.0001C23.6107 32.0001 24.4781 31.8465 25.2589 31.4881C27.4276 30.5921 28.9519 28.5441 29.2865 26.1761C29.5344 25.0497 29.4104 23.9361 29.0015 22.7457C28.8652 22.3617 28.7164 21.9393 28.5553 21.5937ZM15.0349 24.4097C13.3619 22.2337 12.2713 20.1857 11.8995 18.4577C11.7384 17.7153 11.7136 17.0753 11.8128 16.4993C11.8748 15.9873 12.0606 15.5393 12.3085 15.1553C12.9033 14.2849 13.8948 13.7473 15.0349 13.7473C16.1874 13.7473 17.2036 14.2593 17.7613 15.1553C18.0091 15.5393 18.195 15.9873 18.257 16.4993C18.3438 17.0753 18.319 17.7537 18.1579 18.4577C17.7985 20.1473 16.7079 22.1953 15.0349 24.4097ZM27.4152 25.9201C27.1921 27.5841 26.114 29.0305 24.5897 29.6705C23.8461 29.9905 23.0406 30.0929 22.2351 29.9905C21.4543 29.8881 20.686 29.6321 19.8804 29.1585C18.7651 28.5185 17.6498 27.5201 16.3485 26.0481C18.3933 23.4497 19.6326 21.0817 20.1035 18.9697C20.3266 17.9713 20.3514 17.0753 20.2522 16.2433C20.1283 15.4369 19.8433 14.7073 19.4095 14.0673C18.4429 12.6209 16.8318 11.7889 15.0349 11.7889C13.238 11.7889 11.6269 12.6593 10.6603 14.0673C10.2265 14.7073 9.94149 15.4497 9.81756 16.2433C9.69364 17.0753 9.71842 18.0097 9.96628 18.9697C10.4372 21.0817 11.7013 23.4881 13.7213 26.0865C12.4448 27.5585 11.3047 28.5569 10.1893 29.1969C9.38382 29.6833 8.60308 29.9393 7.83473 30.0289C6.99203 30.1313 6.1865 30.0033 5.48011 29.7089C3.95581 29.0689 2.87764 27.6225 2.65458 25.9585C2.56783 25.1521 2.6174 24.3585 2.93961 23.4625C3.02636 23.1425 3.18746 22.8225 3.34857 22.4385C3.57164 21.9265 3.8071 21.3761 4.06734 20.8385L4.10452 20.7745C6.24846 16.0001 8.54111 11.1361 10.9329 6.3873L11.0321 6.1953C11.2799 5.7217 11.5278 5.1969 11.7756 4.7233C12.0235 4.2113 12.3085 3.7249 12.6431 3.3153C13.2999 2.5473 14.1674 2.1249 15.1216 2.1249C16.0883 2.1249 16.9558 2.5473 17.6002 3.3153C17.9472 3.7377 18.2198 4.2113 18.4677 4.7233C18.7155 5.2097 18.9634 5.7217 19.2112 6.1953L19.3104 6.3873C21.665 11.1489 23.9205 15.9489 26.1016 20.8001V20.8257C26.3494 21.3377 26.5725 21.9137 26.8204 22.4257C26.9815 22.8097 27.1302 23.1297 27.2293 23.4497C27.44 24.2817 27.5391 25.0753 27.4152 25.9201Z" fill="#ADB7C2"/>
<path d="M93.9398 11.4691C91.895 11.4691 90.9284 12.7491 90.9284 12.7491V5.99072H87.9541V23.8339H90.4698C90.7177 23.8339 90.9036 23.6035 90.9036 23.3859V22.8355C90.9036 22.8355 91.8702 24.1539 93.915 24.1539C97.2982 24.1539 99.9255 21.4659 99.9255 17.8179C99.9131 14.1571 97.2858 11.4691 93.9398 11.4691ZM93.4317 21.2355C92.2792 21.2355 91.3869 20.6211 90.916 19.9171V15.6291C91.3869 14.9891 92.3783 14.3107 93.4317 14.3107C95.4145 14.3107 96.9388 15.5907 96.9388 17.7667C96.9388 19.9427 95.4269 21.2355 93.4317 21.2355Z" fill="#ADB7C2"/>
<path d="M50.9487 5.96484C49.7962 5.96484 48.9287 6.89924 48.9287 8.05124C48.9287 9.20325 49.8334 10.1376 50.9487 10.1376C52.0641 10.1376 52.9687 9.20325 52.9687 8.05124C52.9687 6.92484 52.1012 5.99044 50.9487 5.96484Z" fill="#ADB7C2"/>
<path d="M84.9422 12.6207C84.0747 11.8527 82.9841 11.4688 81.6829 11.4688C80.5304 11.4688 79.3902 11.8271 78.5227 12.7487V12.2368C78.5227 12.0064 78.3368 11.7887 78.089 11.7887H75.7344V23.8335H78.7086V15.4367C79.3035 14.7327 80.2329 14.2463 81.1252 14.2463C82.7982 14.2463 83.4179 15.0527 83.4179 17.0367V23.8591H86.3921V16.6783C86.3921 14.6687 85.9955 13.5167 84.9422 12.6207Z" fill="#ADB7C2"/>
<path d="M57.2444 12.7489V12.2369C57.2444 12.0065 57.0585 11.7889 56.8106 11.7889H54.2949V23.8593H57.2692V15.4369C58.8183 13.6065 61.2968 14.4769 61.2968 14.4769V11.6225C61.2968 11.6225 60.8259 11.4561 59.9336 11.4561C59.0165 11.4689 57.8021 12.0705 57.2444 12.7489Z" fill="#ADB7C2"/>
<path d="M68.4974 11.4691C66.4526 11.4691 65.486 12.7491 65.486 12.7491V5.99072H62.5117V23.8339H65.0274C65.2753 23.8339 65.4612 23.6035 65.4612 23.3859V22.8355C65.4612 22.8355 66.4278 24.1539 68.4726 24.1539C71.8558 24.1539 74.4831 21.4659 74.4831 17.8179C74.5203 14.1571 71.8806 11.4691 68.4974 11.4691ZM68.0017 21.2355C66.8492 21.2355 65.9569 20.6211 65.486 19.9171V15.6291C65.9569 14.9891 66.9483 14.3107 68.0017 14.3107C69.9845 14.3107 71.5088 15.5907 71.5088 17.7667C71.5088 19.9427 69.9969 21.2355 68.0017 21.2355Z" fill="#ADB7C2"/>
</g>
<defs>
<clipPath id="clip0_2364_2826">
<rect width="99.2656" height="32" fill="white" transform="translate(0.647461)"/>
</clipPath>
</defs>
</svg>
