<svg width="104" height="32" viewBox="0 0 104 32" fill="none" xmlns="http://www.w3.org/2000/svg">
<g clip-path="url(#clip0_2364_2816)">
<path d="M63.5272 23.5649C56.7782 26.5089 49.4439 27.9297 42.807 27.9297C32.9325 27.9297 23.3943 25.1649 15.674 20.5441C14.9891 20.1345 14.516 20.8385 15.0514 21.3633C22.2362 28.0065 31.6624 31.9873 42.1844 31.9873C49.693 31.9873 58.3969 29.5681 64.3864 25.0113C65.3701 24.2817 64.5358 23.1553 63.5272 23.5649Z" fill="#ADB7C2"/>
<path d="M59.7543 21.0303C59.2064 21.4015 59.3185 21.9263 59.9037 21.8495C61.8213 21.5935 66.1422 21.0687 66.9017 22.0671C67.6613 23.1167 66.0301 27.2511 65.3079 29.1199C65.0962 29.6831 65.5569 29.9007 66.0675 29.4911C69.2925 26.7263 70.1268 20.9151 69.4793 20.0959C68.8193 19.2767 63.191 18.5343 59.7543 21.0303Z" fill="#ADB7C2"/>
<path d="M18.4632 18.5342H21.6509C22.012 18.5342 22.2735 18.2782 22.2984 17.971V9.02382C22.2984 7.05262 22.2237 4.36462 24.5149 4.36462C26.7687 4.36462 26.4698 7.16782 26.4698 9.02382V17.971C26.4698 18.2654 26.7189 18.5342 27.0551 18.5726H30.2428C30.5666 18.5726 30.8654 18.3166 30.8654 17.971V9.02382C30.8654 8.05102 30.828 6.64302 31.1518 5.78542C31.4755 4.92782 32.3098 4.40302 33.0694 4.40302C34.0158 4.40302 34.7006 4.73582 34.9621 5.86222C35.1115 6.52782 35.0368 8.31982 35.0368 9.02382V17.971C35.0368 18.2654 35.2859 18.5342 35.6221 18.5726H38.7724C39.0962 18.5726 39.395 18.3166 39.395 17.971V7.30862C39.395 5.47822 39.6067 3.43022 38.5981 2.00942C37.6891 0.703825 36.2447 0.140625 34.8999 0.140625C33.0071 0.140625 31.239 1.15182 30.4794 3.27662C29.6077 1.15182 28.3376 0.140625 26.3453 0.140625C24.3903 0.140625 22.8961 1.15182 22.1365 3.27662H22.0618V1.07502C22.0245 0.780625 21.8128 0.511825 21.4766 0.511825H18.5005C18.1768 0.511825 17.8779 0.767825 17.8779 1.11342V17.971C17.9153 18.2782 18.1643 18.4958 18.4632 18.5342Z" fill="#ADB7C2"/>
<path d="M51.6232 7.1296C49.7679 7.3472 47.3397 7.5008 45.5964 8.2816C43.6041 9.1776 42.1846 10.9696 42.1846 13.6576C42.1846 17.0496 44.289 18.7648 46.9786 18.7648C49.2324 18.7648 50.5025 18.2016 52.2334 16.384C52.8186 17.2416 53.0303 17.6896 54.0887 18.5856C54.3378 18.7392 54.6366 18.7008 54.8483 18.5088C55.4958 17.9456 56.6663 16.9088 57.3511 16.3456C57.6002 16.1536 57.5628 15.7824 57.3511 15.488C56.7783 14.6176 56.1557 13.952 56.1557 12.416V7.3088C56.1557 5.1456 56.3052 3.136 54.7362 1.6384C53.5035 0.4096 51.4738 0 49.9173 0C46.8665 0 43.492 1.152 42.7698 5.0304C42.6951 5.44 42.9815 5.632 43.243 5.696L46.3186 6.0416C46.605 6.0416 46.7918 5.7472 46.8665 5.44C47.1156 4.096 48.2113 3.4688 49.4441 3.4688C50.0916 3.4688 50.8263 3.7248 51.2247 4.3264C51.6979 4.992 51.6232 5.9264 51.6232 6.7072V7.1296ZM51.038 13.9904C50.5274 14.9248 49.7305 15.488 48.8215 15.488C47.5887 15.488 46.8665 14.5152 46.8665 13.1072C46.8665 10.304 49.2947 9.792 51.6232 9.792V10.496C51.6232 11.7504 51.6606 12.8256 51.038 13.9904Z" fill="#ADB7C2"/>
<path d="M15.4127 16.3328C15.6617 16.1408 15.6244 15.7696 15.4127 15.4752C14.8274 14.6176 14.2173 13.952 14.2173 12.416V7.3088C14.2173 5.1456 14.3667 3.136 12.7977 1.6384C11.565 0.4096 9.53531 0 7.97881 0C4.92806 0 1.55356 1.152 0.831339 5.0304C0.756627 5.44 1.04302 5.632 1.29206 5.7088L4.38017 6.0416C4.66657 6.0416 4.85335 5.7472 4.92806 5.44C5.1771 4.096 6.27288 3.4688 7.50563 3.4688C8.15314 3.4688 8.88781 3.7248 9.28627 4.3264C9.747 4.992 9.68474 5.9264 9.68474 6.7072V7.1168C7.82938 7.3344 5.40124 7.488 3.65795 8.2688C1.66563 9.1776 0.246094 10.9696 0.246094 13.6448C0.246094 17.0368 2.35049 18.752 5.04013 18.752C7.29395 18.752 8.56405 18.1888 10.2949 16.3712C10.8801 17.2288 11.0918 17.6768 12.1502 18.5728C12.3993 18.7264 12.6981 18.688 12.9098 18.496C13.5573 17.9456 14.7278 16.896 15.4127 16.3328ZM9.13685 13.9904C8.62631 14.9248 7.82938 15.488 6.92038 15.488C5.68763 15.488 4.96542 14.5152 4.96542 13.1072C4.96542 10.304 7.39356 9.792 9.72209 9.792V10.496C9.70964 11.7504 9.747 12.8256 9.13685 13.9904Z" fill="#ADB7C2"/>
<path d="M71.4718 13.9519C69.6538 12.9023 67.512 12.6079 65.4823 12.6463L70.9239 4.65913C71.4344 3.91673 71.7208 3.46873 71.7208 3.13593V1.08793C71.7208 0.755128 71.4344 0.486328 71.0982 0.486328H60.5763C60.2525 0.486328 59.991 0.703928 59.991 1.08793V3.50713C59.991 3.83993 60.2774 4.10873 60.6136 4.10873H66.0925L59.7793 13.4015C59.3809 14.0031 59.3809 14.6687 59.3809 15.0399V17.4975C59.3809 17.8687 59.7793 18.2399 60.1404 18.0607C63.7017 16.0895 68.0101 16.2687 71.2476 18.0223C71.6461 18.2399 72.0072 17.8303 72.0072 17.4591V14.8863C71.9698 14.5407 71.8702 14.1695 71.4718 13.9519Z" fill="#ADB7C2"/>
<path d="M102.813 2.12501C101.904 0.665808 100.497 0.153809 99.0778 0.153809C96.8613 0.153809 95.6285 1.22901 94.7195 3.54581H94.6448V0.973008C94.5701 0.717008 94.3584 0.486609 94.0596 0.486609H91.0835C90.7598 0.486609 90.4983 0.742608 90.4609 1.04981V17.9458C90.4609 18.2402 90.71 18.509 91.0462 18.5474H94.2339C94.5577 18.5474 94.8565 18.2914 94.8814 17.9458V8.84501C94.8814 7.69301 94.9561 6.68181 95.392 5.63221C95.7531 4.81301 96.4753 4.28821 97.2473 4.28821C99.4638 4.28821 99.2396 6.97621 99.2396 8.83221V18.0098C99.277 18.2658 99.526 18.4962 99.8249 18.5346H103.013C103.336 18.5346 103.598 18.317 103.635 18.0098V7.38581C103.648 5.74741 103.648 3.46901 102.813 2.12501Z" fill="#ADB7C2"/>
<path d="M80.7985 0.153809C76.1539 0.153809 73.5763 4.26261 73.6137 9.51061C73.6137 14.733 76.1539 18.9058 80.7985 18.9058C85.2937 18.9058 88.1328 14.797 88.1328 9.65141C88.1203 4.32661 85.5427 0.153809 80.7985 0.153809ZM80.7612 15.437C78.2583 15.437 78.2957 11.0338 78.2957 8.98581C78.2957 6.93781 78.4451 3.60981 80.7985 3.60981C81.8196 3.60981 82.5418 4.05781 82.9029 5.24821C83.3014 6.59221 83.3761 8.30741 83.3761 9.72821C83.3636 11.8914 83.2267 15.437 80.7612 15.437Z" fill="#ADB7C2"/>
</g>
<defs>
<clipPath id="clip0_2364_2816">
<rect width="103.402" height="32" fill="white" transform="translate(0.246094)"/>
</clipPath>
</defs>
</svg>
