<svg width="96" height="32" viewBox="0 0 96 32" fill="none" xmlns="http://www.w3.org/2000/svg">
<g clip-path="url(#clip0_2364_2807)">
<path d="M12.3364 11.3006V14.6879C14.9829 14.7048 17.6294 14.6879 20.2759 14.6879C20.0846 16.3659 19.4941 18.0921 18.2199 19.2284C16.5932 20.8414 14.2665 21.5468 12.0331 21.4168C9.64093 21.3349 7.3305 20.1505 5.81355 18.2582C4.23592 16.3178 3.54979 13.6864 3.88352 11.1851C4.18691 8.65242 5.5895 6.28348 7.6619 4.88474C9.55925 3.55342 11.998 3.10804 14.2618 3.60157C15.7928 3.89768 17.1954 4.73548 18.3599 5.82125C19.1091 5.01475 19.8909 4.24195 20.6563 3.43545C18.5863 1.28318 15.6994 0.0650015 12.7659 0H11.921C9.52891 0.146855 7.18581 0.953356 5.25578 2.41709C3.2464 3.89768 1.6851 6.02107 0.870616 8.42131C-0.0232193 11.0527 -0.00688285 14.0138 0.949964 16.6284C1.97216 19.474 4.04455 21.8935 6.64437 23.3235C8.81245 24.5417 11.3329 25.0184 13.7717 24.7704C16.2899 24.5561 18.7613 23.4704 20.549 21.6287C23.2282 19.031 24.0567 14.9335 23.4825 11.2982H12.3364V11.3006Z" fill="#ADB7C2"/>
<path d="M75.8594 24.3273C76.9913 24.361 78.1395 24.3441 79.2713 24.3441V0.854492H75.8594C75.8594 8.68356 75.8734 16.5126 75.8594 24.3273Z" fill="#ADB7C2"/>
<path d="M37.1935 10.345C35.4548 9.045 33.1747 8.58517 31.0696 8.99685C28.4231 9.47353 26.08 11.4958 25.2492 14.144C24.4207 16.6117 24.7871 19.5054 26.3017 21.612C27.6413 23.5211 29.8421 24.6887 32.1058 24.8187C34.5773 24.9824 37.1118 23.8966 38.6591 21.8744C40.0943 20.064 40.6358 17.565 40.2064 15.2779C39.8726 13.3062 38.7711 11.4982 37.1935 10.345ZM36.3323 19.3441C35.7255 20.4949 34.6263 21.3664 33.3661 21.5975C32.0101 21.8768 30.5445 21.4001 29.5714 20.3793C27.8654 18.6026 27.7697 15.4946 29.317 13.5855C29.8911 12.8608 30.6892 12.3529 31.5481 12.1217C32.9203 11.7606 34.4349 12.1699 35.4711 13.1569C37.0814 14.6881 37.3848 17.3869 36.3323 19.3441Z" fill="#ADB7C2"/>
<path d="M54.8104 10.9538C53.0088 9.21082 50.3786 8.51988 47.9702 8.99656C45.3703 9.45638 43.0762 11.4137 42.1988 13.98C41.3213 16.4958 41.6573 19.457 43.2023 21.6117C44.5745 23.5689 46.8546 24.7534 49.1651 24.8184C51.5875 24.934 54.045 23.8482 55.5596 21.8741C58.0637 18.7516 57.744 13.667 54.8104 10.9538ZM53.2492 19.3438C52.6424 20.4946 51.5268 21.3517 50.2829 21.5972C48.8803 21.8933 47.3657 21.3661 46.3925 20.2972C44.7496 18.5036 44.6865 15.4462 46.2175 13.5707C46.7916 12.8629 47.5898 12.3526 48.4486 12.1239C49.8045 11.7627 51.3191 12.1576 52.3553 13.1446C53.982 14.6709 54.2853 17.3697 53.2492 19.3438Z" fill="#ADB7C2"/>
<path d="M70.1808 10.6913C69.686 10.2147 69.1772 9.73799 68.5541 9.45872C66.5774 8.43796 64.1386 8.76778 62.3043 9.95225C60.0872 11.351 58.6216 13.9318 58.5726 16.6137C58.4769 18.9826 59.4968 21.366 61.2191 22.914C62.9251 24.4596 65.3639 25.2493 67.5809 24.6089C68.6008 24.3633 69.4456 23.7037 70.1808 22.9646C70.2274 24.4933 70.2274 26.205 69.2403 27.4545C68.3161 28.6727 66.6731 29.0338 65.2542 28.7714C63.8352 28.509 62.7034 27.3558 62.1456 26.0076C61.1561 26.4506 60.1526 26.831 59.1957 27.3077C60.1526 29.6597 62.3043 31.5183 64.7758 31.8963C67.0885 32.2574 69.6557 31.7157 71.329 29.9559C72.8599 28.3597 73.4014 26.0413 73.4177 23.8529V9.34317C72.3325 9.32631 71.266 9.34317 70.1971 9.32631C70.1808 9.78614 70.1971 10.246 70.1808 10.6913ZM69.7514 19.5725C69.1306 20.7064 67.966 21.5297 66.7058 21.6622C65.3662 21.809 63.9799 21.2192 63.1188 20.1479C61.6042 18.3374 61.6042 15.3955 63.1024 13.5514C63.7232 12.7786 64.6334 12.2201 65.6066 12.054C66.9298 11.8084 68.3324 12.3164 69.2099 13.354C70.6289 15.0344 70.8039 17.6489 69.7514 19.5725Z" fill="#ADB7C2"/>
<path d="M91.2927 20.7742C90.1282 21.7275 88.4712 21.9081 87.0826 21.4001C86.0931 21.0559 85.3603 20.1988 84.8818 19.2623C88.3428 17.7817 91.7852 16.318 95.2462 14.8374C94.497 12.4853 93.0151 10.1982 90.686 9.2954C88.2308 8.32519 85.2809 8.95113 83.3672 10.7928C80.3847 13.6385 80.1303 18.9349 82.7768 22.0935C84.3871 24.1013 87.0336 25.086 89.5214 24.7754C91.7688 24.5611 93.8576 23.2129 95.1015 21.2894C94.224 20.6803 93.3465 20.0881 92.4713 19.479C92.1212 19.9364 91.7548 20.4131 91.2927 20.7742ZM85.0755 13.8335C85.9204 12.5503 87.498 11.7125 89.015 11.9918C89.9555 12.1386 90.8797 12.6996 91.2624 13.6192C88.9496 14.6231 86.6392 15.6102 84.3264 16.5972C84.3101 15.6246 84.5318 14.64 85.0755 13.8335Z" fill="#ADB7C2"/>
</g>
<defs>
<clipPath id="clip0_2364_2807">
<rect width="95.0289" height="32" fill="white" transform="translate(0.216797)"/>
</clipPath>
</defs>
</svg>
