<svg width="78" height="32" viewBox="0 0 78 32" fill="none" xmlns="http://www.w3.org/2000/svg">
<g clip-path="url(#clip0_2364_2848)">
<path fill-rule="evenodd" clip-rule="evenodd" d="M66.2669 8.78019C66.4055 9.16416 66.453 9.49911 66.4985 9.74011C66.5461 9.97907 66.5461 10.2201 66.5916 10.4121C66.653 10.1751 66.746 9.94843 66.8708 9.74011C66.9638 9.50115 67.1499 9.16416 67.3816 8.78019L73.2915 0H77.8491L68.4546 12.8568L71.7571 20.2441H67.2449L66.1283 16.7414C66.0353 16.5004 65.9897 16.2145 65.8967 15.9265C65.8967 15.6855 65.8491 15.3975 65.8491 15.1116C65.7106 15.3995 65.6175 15.6875 65.4769 15.9265C65.3383 16.2145 65.1978 16.5024 65.0592 16.7414L62.8279 20.2441H58.3633L64.0376 12.8568L61.2935 6.42737H65.6195L66.2669 8.78019Z" fill="#ADB7C2"/>
<path fill-rule="evenodd" clip-rule="evenodd" d="M59.7093 6.42931L57.4304 20.246H53.7558L54.128 17.9912C53.4766 18.9511 52.7322 19.6701 52.0353 20.103C51.2909 20.534 50.5009 20.775 49.5704 20.775C48.0815 20.775 46.9669 20.103 46.3155 18.7592C45.6166 17.4153 45.478 15.5914 45.8502 13.3366C46.2224 11.0819 46.9669 9.30702 48.129 7.96314C49.2912 6.66827 50.687 5.99633 52.3145 5.99633C53.1519 5.99633 53.8489 6.18831 54.4072 6.66827C54.918 7.09921 55.3377 7.77115 55.6624 8.6841L56.0346 6.42931H59.7093ZM55.0586 13.3366C55.2447 12.2338 55.1516 11.3698 54.7794 10.7449C54.4072 10.1219 53.8033 9.83396 53.0114 9.83396C52.1739 9.83396 51.477 10.1219 50.9187 10.7449C50.3603 11.3698 49.9881 12.2317 49.802 13.3366C49.6159 14.3925 49.709 15.2565 50.0812 15.8794C50.4534 16.4554 51.0573 16.7903 51.8472 16.7903C52.6392 16.7903 53.3361 16.4554 53.9399 15.8794C54.5002 15.2565 54.8724 14.3925 55.0586 13.3366ZM35.0144 20.246H38.9682L39.9443 14.5355C40.1304 13.1916 40.5956 12.1847 41.247 11.4168C41.8984 10.6979 42.6884 10.3609 43.6644 10.3609C43.8981 10.3609 44.0842 10.3609 44.3158 10.4079C44.5475 10.4548 44.7811 10.5508 45.0127 10.6468L46.1294 6.18423C45.9433 6.18423 45.8047 6.13725 45.6186 6.13725H45.1533C44.2228 6.13725 43.3397 6.42523 42.5498 7.00118C41.8053 7.6241 41.1084 8.48803 40.5501 9.68691L41.0609 6.42523H37.2932L35.0144 20.246ZM25.9447 20.246H30.4093L32.9672 4.12551H66.7318L68.9176 0.191884H11.4798L10.6898 4.12551H28.4551L25.9447 20.246ZM8.27239 20.246L10.5512 6.42931H14.2258L13.7586 9.21103C14.4555 8.10815 15.1999 7.29324 15.9919 6.76426C16.7818 6.23733 17.6668 5.99633 18.6429 5.99633C19.3874 5.99633 19.9912 6.13929 20.504 6.42931C21.0623 6.71729 21.4345 7.10125 21.7137 7.6772C21.9453 8.10815 22.0384 8.6841 22.0859 9.35604C22.0859 10.028 21.9929 11.0349 21.7612 12.3297L20.4585 20.246H16.4591L17.6688 12.8587C17.8549 11.7558 17.8549 10.9389 17.6233 10.4589C17.4372 9.93199 16.9719 9.69099 16.3205 9.69099C15.4831 9.69099 14.8317 10.075 14.3209 10.7939C13.8101 11.5618 13.4379 12.7607 13.1587 14.4395L12.1826 20.244L8.27239 20.246ZM3.76028 4.12551L4.59777 0.046875H8.59709L7.80713 4.12551H3.76028ZM1.2023 20.246L3.48112 6.42931H7.48045L5.20163 20.246H1.2023ZM0.505388 31.042L1.24982 30.993C1.24982 31.185 1.29535 31.281 1.43592 31.377C1.52898 31.473 1.71509 31.5199 1.94673 31.5199C2.17837 31.5199 2.36448 31.473 2.50505 31.424C2.64364 31.328 2.69116 31.232 2.7367 31.136C2.7367 31.089 2.73669 31.04 2.69116 30.993C2.64562 30.946 2.55257 30.897 2.45951 30.85C2.36646 30.85 2.18035 30.8031 1.90119 30.754C1.52898 30.6581 1.24982 30.5621 1.11123 30.4661C0.92512 30.3231 0.879583 30.1311 0.92512 29.9391C0.970656 29.7962 1.06371 29.6512 1.20428 29.5552C1.29733 29.4122 1.48344 29.3162 1.71509 29.2672C1.90119 29.1712 2.18035 29.1712 2.45951 29.1712C2.87727 29.1712 3.20394 29.2182 3.43559 29.3632C3.62169 29.5552 3.66723 29.7472 3.62169 29.9882H2.87727C2.87727 29.8452 2.87727 29.7472 2.78421 29.7002C2.69116 29.6512 2.50505 29.6042 2.31894 29.6042C2.0873 29.6042 1.94673 29.6512 1.80616 29.7002C1.723 29.7369 1.65767 29.8064 1.62005 29.8922C1.62005 29.9391 1.62005 29.9882 1.71311 30.0351C1.80616 30.1311 1.99227 30.1781 2.31894 30.2271C2.69116 30.2761 2.9228 30.3721 3.06337 30.4191C3.24948 30.5151 3.34253 30.5621 3.43559 30.7071C3.48112 30.8031 3.48112 30.9481 3.48112 31.138C3.43559 31.281 3.34253 31.426 3.20196 31.569C3.01586 31.714 2.82975 31.81 2.64364 31.8569C2.41002 31.9529 2.13086 31.9999 1.80616 31.9999C1.34089 31.9999 1.01619 31.9039 0.782569 31.7589C0.598442 31.5669 0.505388 31.328 0.505388 31.042ZM4.55025 29.2182H5.29468L4.92246 30.705C4.87693 30.897 4.82941 31.089 4.82941 31.136C4.82941 31.232 4.87495 31.328 5.01552 31.424C5.10857 31.473 5.24914 31.5199 5.48079 31.5199C5.66689 31.5199 5.853 31.473 5.94605 31.424C6.08464 31.328 6.17968 31.281 6.22521 31.185C6.27075 31.089 6.31827 30.944 6.36381 30.705L6.6885 29.2182H7.43293L7.10823 30.656C7.01518 30.944 6.96964 31.1829 6.87461 31.328C6.82907 31.4709 6.6885 31.5669 6.59545 31.6629C6.45686 31.7589 6.27075 31.8549 6.08464 31.9039C5.89854 31.9509 5.66689 31.9999 5.38773 31.9999C5.12045 32.004 4.85515 31.9713 4.59777 31.9039C4.45918 31.8079 4.31861 31.7609 4.22555 31.6629C4.1325 31.5669 4.1325 31.4709 4.08696 31.328C4.08696 31.185 4.1325 30.944 4.18002 30.656L4.55025 29.2182ZM7.5735 31.042L8.31793 30.993C8.31793 31.185 8.36347 31.281 8.50404 31.377C8.59709 31.473 8.7832 31.5199 9.01484 31.5199C9.24649 31.5199 9.43259 31.473 9.57316 31.424C9.71175 31.328 9.75927 31.232 9.80481 31.136C9.80481 31.089 9.80481 31.04 9.75927 30.993C9.71373 30.946 9.66622 30.897 9.52565 30.85C9.43259 30.85 9.24649 30.8031 8.96733 30.754C8.59511 30.6581 8.31595 30.5621 8.2229 30.4661C7.98927 30.3231 7.94374 30.1311 7.98927 29.9391C8.03481 29.7962 8.12786 29.6512 8.2229 29.5552C8.36149 29.4122 8.5476 29.3162 8.78122 29.2672C8.96733 29.1712 9.19897 29.1712 9.52565 29.1712C9.94538 29.1712 10.2701 29.2182 10.5017 29.3632C10.6878 29.5552 10.7334 29.7472 10.6878 29.9882H9.9434C9.9434 29.8452 9.89786 29.7472 9.85035 29.7002C9.75729 29.6512 9.57119 29.6042 9.38508 29.6042C9.15343 29.6042 9.01286 29.6512 8.87229 29.7002C8.78914 29.7369 8.72182 29.8064 8.68619 29.8922C8.68619 29.9391 8.68619 29.9882 8.77924 30.0351C8.87229 30.1311 9.0584 30.1781 9.38508 30.2271C9.75729 30.2761 9.98894 30.3721 10.175 30.4191C10.3136 30.5151 10.4067 30.5621 10.4997 30.7071C10.5453 30.8031 10.5928 30.9481 10.5453 31.138C10.4997 31.281 10.4067 31.426 10.2661 31.569C10.08 31.714 9.8939 31.81 9.7078 31.8569C9.47615 31.9529 9.19699 31.9999 8.87031 31.9999C8.40505 31.9999 8.08035 31.9039 7.84672 31.7589C7.66656 31.5669 7.5735 31.328 7.5735 31.042ZM10.969 31.9529L11.6203 29.2182H12.7825C13.2478 29.2182 13.527 29.2182 13.6655 29.2652C13.8517 29.2652 13.9922 29.3611 14.1308 29.5062C14.2239 29.6491 14.2694 29.8431 14.2239 30.0331C14.1862 30.1965 14.1051 30.3456 13.9922 30.464C13.8536 30.56 13.7586 30.656 13.62 30.752C13.4814 30.801 13.3408 30.848 13.2023 30.848C13.0161 30.895 12.737 30.895 12.4123 30.895H11.947L11.7134 31.9509L10.969 31.9529ZM12.2242 29.6491L12.0381 30.464H12.4558C12.735 30.464 12.9686 30.4171 13.0617 30.4171C13.1547 30.3701 13.2478 30.3211 13.2953 30.2741C13.3884 30.1781 13.4339 30.1311 13.4339 30.0331C13.4794 29.9371 13.4339 29.8901 13.3884 29.7921C13.3428 29.7451 13.2498 29.6961 13.1092 29.6961C13.0637 29.6471 12.8756 29.6471 12.5964 29.6471L12.2242 29.6491ZM14.3644 31.9529L15.0158 29.2182H17.7124L17.6193 29.6491H15.6197L15.4811 30.2741H17.3421L17.2036 30.705H15.39L15.2039 31.473H17.2511L17.1125 31.9529H14.3644ZM17.7599 31.9529L18.4113 29.2182H19.1082L20.1773 31.042L20.6426 29.2182H21.294L20.6426 31.9529H19.8982L18.8746 30.1781L18.4548 31.9529H17.7599ZM21.4325 31.042L22.177 30.993C22.177 31.185 22.2225 31.281 22.3631 31.377C22.4561 31.473 22.6422 31.5199 22.8739 31.5199C23.064 31.5199 23.252 31.4873 23.4322 31.424C23.5708 31.328 23.6183 31.232 23.6639 31.136C23.6639 31.089 23.6639 31.04 23.6183 30.993C23.5728 30.946 23.5253 30.897 23.3867 30.85C23.2936 30.85 23.1075 30.8031 22.8284 30.754C22.4561 30.6581 22.177 30.5621 22.0839 30.4661C21.8503 30.3231 21.8048 30.1311 21.8503 29.9391C21.8998 29.7962 21.979 29.6634 22.0839 29.5552C22.2225 29.4122 22.4086 29.3162 22.6422 29.2672C22.8284 29.1712 23.1075 29.1712 23.3867 29.1712C23.8044 29.1712 24.1311 29.2182 24.3627 29.3632C24.5489 29.5552 24.5944 29.7472 24.5489 29.9882H23.8044C23.85 29.8452 23.7589 29.7472 23.7114 29.7002C23.6183 29.6512 23.4777 29.6042 23.2461 29.6042C23.0125 29.6042 22.8739 29.6512 22.7353 29.7002C22.6521 29.7369 22.5848 29.8064 22.5492 29.8922C22.5492 29.9391 22.5947 29.9882 22.6422 30.0351C22.7353 30.1311 22.9214 30.1781 23.2936 30.2271C23.6203 30.2761 23.8519 30.3721 24.038 30.4191C24.1766 30.5151 24.2697 30.5621 24.3627 30.7071C24.4083 30.8031 24.4558 30.9481 24.4083 31.138C24.3627 31.281 24.2697 31.426 24.1291 31.569C23.943 31.714 23.7569 31.81 23.5708 31.8569C23.3392 31.9529 23.06 31.9999 22.7333 31.9999C22.2681 31.9999 21.9434 31.9039 21.7097 31.7589C21.5256 31.5669 21.4325 31.328 21.4325 31.042ZM24.7825 31.9529L25.4339 29.2182H26.1783L25.5269 31.9529H24.7825ZM26.4099 30.56C26.4555 30.319 26.596 30.0801 26.7366 29.8881C26.8752 29.7451 27.0158 29.6001 27.1544 29.5041C27.3405 29.4081 27.5266 29.3121 27.7127 29.2631C27.9443 29.2161 28.2235 29.1671 28.5026 29.1671C29.061 29.1671 29.4332 29.2631 29.7123 29.5511C29.9915 29.7921 30.039 30.127 29.946 30.56C29.8529 30.991 29.6213 31.328 29.2491 31.6159C28.8313 31.8569 28.4116 31.9999 27.8532 31.9999C27.2949 31.9999 26.9227 31.8569 26.6435 31.6159C26.4099 31.377 26.3169 31.042 26.4099 30.56ZM27.1544 30.56C27.1088 30.895 27.1544 31.087 27.2929 31.2789C27.4315 31.4219 27.6652 31.5199 27.9443 31.5199C28.269 31.5199 28.5026 31.4239 28.7343 31.2789C28.9679 31.087 29.1065 30.895 29.1996 30.56C29.2451 30.272 29.2451 30.0331 29.1065 29.8411C28.9204 29.6981 28.7343 29.6491 28.4096 29.6491C28.0849 29.6491 27.8513 29.6981 27.6196 29.8411C27.386 30.0331 27.2474 30.2741 27.1544 30.56ZM30.2231 31.9529L30.8745 29.2182H31.5714L32.6406 31.042L33.0583 29.2182H33.7552L33.1038 31.9529H32.3594L31.2903 30.1781L30.8725 31.9529H30.2231ZM36.0835 31.9529L36.6419 29.6512H35.5727L35.6658 29.2202H38.5485L38.4554 29.6512H37.3863L36.828 31.9529H36.0835ZM38.4079 31.9529L39.0593 29.2182H41.7578L41.6192 29.6491H39.6651L39.5245 30.2741H41.3381L41.245 30.705H39.4315L39.2454 31.473H41.2926L41.154 31.9529H38.4079ZM44.3614 30.944L45.0127 31.087C44.8741 31.3749 44.595 31.6139 44.3158 31.7589C44.0367 31.9019 43.71 31.9999 43.2922 31.9999C42.827 31.9999 42.4547 31.8569 42.2231 31.6159C41.9439 31.3749 41.8984 31.04 41.9895 30.607C42.0825 30.127 42.3162 29.7921 42.6884 29.5511C43.0606 29.2631 43.5258 29.1671 44.0367 29.1671C44.4564 29.1671 44.8266 29.2631 45.0602 29.4551C45.1988 29.5511 45.2463 29.7431 45.2939 29.9351L44.5494 30.078C44.5494 29.9351 44.4564 29.8391 44.3633 29.7431C44.2247 29.6471 44.0842 29.6471 43.8981 29.6471C43.6189 29.6471 43.3873 29.6961 43.1536 29.8391C42.9675 29.982 42.827 30.223 42.7339 30.558C42.6884 30.8929 42.6884 31.1339 42.827 31.2769C42.9655 31.4199 43.1536 31.5179 43.4328 31.5179C43.6189 31.5179 43.805 31.4709 43.9436 31.3749C44.1297 31.281 44.2683 31.136 44.3614 30.944ZM45.478 31.9529L46.1294 29.2182H46.8738L46.5946 30.2741H48.036L48.3151 29.2182H49.014L48.3627 31.9529H47.6657L47.9449 30.754H46.5036L46.2244 31.9529H45.478ZM49.1526 31.9529L49.804 29.2182H50.5009L51.57 31.042L51.9878 29.2182H52.6847L52.0333 31.9529H51.2889L50.2653 30.1781L49.8 31.9529H49.1526ZM52.9658 30.56C53.0589 30.319 53.1519 30.0801 53.3381 29.8881C53.443 29.7247 53.5875 29.594 53.7558 29.5041C53.9122 29.3959 54.0845 29.3142 54.2666 29.2631C54.5458 29.2161 54.7774 29.1671 55.1041 29.1671C55.6149 29.1671 56.0346 29.2631 56.2663 29.5511C56.5454 29.7921 56.6385 30.127 56.5454 30.56C56.4068 30.991 56.1732 31.328 55.801 31.6159C55.4288 31.8569 54.9635 31.9999 54.4052 31.9999C53.8944 31.9999 53.4747 31.8569 53.1955 31.6159C52.9658 31.377 52.8728 31.042 52.9658 30.56ZM53.7558 30.56C53.6628 30.895 53.7103 31.087 53.8489 31.2789C54.035 31.4219 54.2211 31.5199 54.5458 31.5199C54.8249 31.5199 55.1041 31.4239 55.2902 31.2789C55.5238 31.087 55.708 30.895 55.7555 30.56C55.8485 30.272 55.801 30.0331 55.6624 29.8411C55.5238 29.6981 55.2902 29.6491 54.9635 29.6491C54.6844 29.6491 54.4052 29.6981 54.1736 29.8411C53.9894 30.0331 53.8033 30.2741 53.7558 30.56ZM56.7791 31.9529L57.4304 29.2182H58.1749L57.6165 31.473H59.4776L59.3846 31.9529H56.7791ZM60.0359 30.56C60.129 30.319 60.222 30.0801 60.4081 29.8881C60.5131 29.7247 60.6576 29.5919 60.8279 29.5041C61.014 29.4081 61.1526 29.3121 61.3387 29.2631C61.6139 29.2018 61.895 29.1712 62.1762 29.1671C62.687 29.1671 63.1067 29.2631 63.3859 29.5511C63.6195 29.7921 63.7125 30.127 63.6195 30.56C63.4809 30.991 63.2473 31.328 62.8751 31.6159C62.5028 31.8569 62.0376 31.9999 61.4812 31.9999C60.9704 31.9999 60.5507 31.8569 60.3191 31.6159C60.0359 31.377 59.9429 31.042 60.0359 30.56ZM60.8259 30.56C60.7328 30.895 60.7784 31.087 60.919 31.2789C61.1051 31.4219 61.2912 31.5199 61.6178 31.5199C61.897 31.5199 62.1762 31.4239 62.3623 31.2789C62.5959 31.087 62.782 30.895 62.8275 30.56C62.9206 30.272 62.8731 30.0331 62.7345 29.8411C62.5959 29.6981 62.3623 29.6491 62.0831 29.6491C61.7584 29.6491 61.4793 29.6981 61.2456 29.8411C61.0575 30.0331 60.8714 30.2741 60.8259 30.56ZM65.7082 30.944L65.8468 30.464H67.4287L67.1496 31.5669C66.9635 31.6629 66.7318 31.7589 66.4052 31.8549C66.1201 31.9488 65.8211 31.9979 65.5221 31.9979C65.1499 31.9979 64.8708 31.9019 64.5916 31.8059C64.358 31.6629 64.1719 31.5179 64.0808 31.2789C63.9877 31.04 63.9877 30.799 64.0333 30.56C64.1263 30.272 64.2669 30.0331 64.453 29.7921C64.6847 29.6001 64.9638 29.4081 65.243 29.3121C65.4746 29.2161 65.8013 29.1692 66.126 29.1692C66.5913 29.1692 66.9179 29.2161 67.1496 29.3611C67.3832 29.5041 67.4763 29.6981 67.5218 29.9371L66.7318 30.0801C66.7318 29.9371 66.6388 29.8411 66.5457 29.7451C66.4071 29.6491 66.219 29.6491 66.0349 29.6491C65.7082 29.6491 65.4291 29.6981 65.1974 29.8411C65.0113 29.9841 64.8727 30.2251 64.8252 30.513C64.7322 30.848 64.7797 31.089 64.9183 31.281C65.0569 31.424 65.245 31.522 65.5696 31.522C65.7082 31.522 65.8963 31.475 66.0349 31.426C66.221 31.379 66.3596 31.33 66.5002 31.283L66.5932 30.9481L65.7082 30.944ZM68.7315 31.9529L68.9631 30.801L68.0326 29.2182H68.9156L69.4739 30.2741L70.5906 29.2182H71.4281L69.7076 30.801L69.4284 31.9529H68.7315ZM0.178711 26.8184H71.8003L72.5447 23.4117H0.92314L0.178711 26.8184Z" fill="#ADB7C2"/>
</g>
<defs>
<clipPath id="clip0_2364_2848">
<rect width="77.6701" height="32" fill="white" transform="translate(0.178711)"/>
</clipPath>
</defs>
</svg>
