<svg width="143" height="28" viewBox="0 0 143 28" fill="none" xmlns="http://www.w3.org/2000/svg">
<g clip-path="url(#clip0_2364_2851)">
<path d="M16.1875 22.5872L19.2143 27.9999L25.268 8.53503L24.4614 8.43066L16.1875 22.5872Z" fill="#ADB7C2"/>
<path d="M0.848633 4.99512L14.066 20.0881L14.5719 19.4647L6.8011 4.99512H0.848633Z" fill="#ADB7C2"/>
<path d="M10.2326 4.99527L26.3756 5.20399L29.304 0L10.0303 4.26755L10.2326 4.99527Z" fill="#ADB7C2"/>
<path d="M117.18 5.33105H114.372V22.641H117.18V5.33105Z" fill="#ADB7C2"/>
<path d="M141.963 13.3697C141.4 12.8141 140.394 12.5264 138.898 12.5264H128.319V7.69753H140.208V10.2079L142.595 9.50835V9.14731C142.595 7.72292 142.313 6.73289 141.753 6.17723C141.189 5.62158 140.161 5.33105 138.663 5.33105H129.722C128.202 5.33105 127.171 5.62158 126.608 6.1998C126.072 6.78084 125.812 7.84138 125.812 9.43501V10.9327C125.812 12.5264 126.069 13.6123 126.608 14.168C127.171 14.749 128.199 15.0367 129.722 15.0367H140.254V20.252H127.759V17.4511L125.161 18.0801V18.5624C125.161 20.1561 125.44 21.2166 125.981 21.7977C126.545 22.3787 127.57 22.6438 129.093 22.6438H138.898C140.421 22.6438 141.449 22.3787 141.988 21.7977C142.526 21.242 142.783 20.1561 142.783 18.5624V16.6078C142.783 15.0141 142.502 13.9508 141.963 13.3697Z" fill="#ADB7C2"/>
<path d="M107.583 5.33105H104.097L98.574 11.8974L92.7008 5.33105H88.6514L96.9115 13.7336L88.7936 22.641H92.3262L98.5056 15.2765L105.174 22.641H109.199L100.212 13.4656L107.583 5.33105Z" fill="#ADB7C2"/>
<path d="M53.3358 14.8421C53.3358 15.9054 53.3604 16.7488 53.4069 17.3524C53.4534 17.956 53.4999 18.5342 53.5956 19.0927C53.2456 18.6583 52.9175 18.2465 52.5894 17.8601C52.2859 17.4991 51.9824 17.1832 51.6761 16.918L39.1314 5.33105H37.376V22.641H39.9516V12.453C39.9516 11.6323 39.927 10.9327 39.8806 10.3517C39.8559 9.7481 39.8095 9.19244 39.7411 8.66217C40.0446 9.19244 40.5368 9.7481 41.1684 10.3517C41.2559 10.4476 41.3488 10.5379 41.4473 10.6168L54.342 22.6382H55.9088V5.33105H53.3331V14.8421H53.3358Z" fill="#ADB7C2"/>
<path d="M79.9235 5.33105H68.3385C66.7936 5.33105 65.7656 5.62158 65.2023 6.1998C64.6637 6.78084 64.3848 7.86395 64.3848 9.43501V18.5624C64.3848 20.1307 64.6637 21.2166 65.2023 21.7977C65.7656 22.3533 66.7936 22.6438 68.3385 22.6438H79.9235C81.4465 22.6438 82.4746 22.3787 83.0132 21.7977C83.5738 21.242 83.8335 20.1561 83.8335 18.5624V9.43501C83.8335 7.84138 83.5765 6.77802 83.0132 6.1998C82.4746 5.62158 81.4438 5.33105 79.9235 5.33105ZM81.0692 20.252H67.1901V7.69753H81.0692V20.252Z" fill="#ADB7C2"/>
</g>
<defs>
<clipPath id="clip0_2364_2851">
<rect width="141.935" height="28" fill="white" transform="translate(0.848633)"/>
</clipPath>
</defs>
</svg>
