<svg width="101" height="32" viewBox="0 0 101 32" fill="none" xmlns="http://www.w3.org/2000/svg">
<g clip-path="url(#clip0_2364_2836)">
<path d="M75.8286 12.2733C75.8268 12.2733 75.8232 12.2733 75.8215 12.2733L75.8197 12.2714H73.2873V9.48846C73.2873 9.3892 73.2128 9.30713 73.1204 9.30713H70.8189C70.7266 9.30713 70.6502 9.3892 70.6502 9.48846V12.2714H69.5439C69.4515 12.2714 69.377 12.3535 69.377 12.4527V14.5791C69.377 14.6783 69.4515 14.7604 69.5439 14.7604H70.6502V20.2614C70.6502 22.4832 71.6802 23.6112 73.7118 23.6112C74.5358 23.6112 75.2212 23.428 75.8659 23.0348C75.9191 23.0042 75.9511 22.9432 75.9511 22.8783V20.8531C75.9511 20.792 75.9209 20.7328 75.8712 20.7004C75.8215 20.666 75.7593 20.6641 75.7078 20.6928C75.2656 20.9313 74.8377 21.0421 74.3564 21.0421C73.6194 21.0421 73.2873 20.6813 73.2873 19.8739V14.7623H75.8197C75.912 14.7623 75.9866 14.6802 75.9866 14.581V12.4546C75.9884 12.3573 75.9174 12.2771 75.8286 12.2733Z" fill="#ADB7C2"/>
<path d="M41.4177 14.7738L41.4123 14.7719C38.8427 14.1134 38.3845 13.6515 38.3845 12.6799C38.3845 11.7618 39.1872 11.1453 40.3841 11.1453C41.5437 11.1453 42.6909 11.6148 43.8967 12.5807C43.9322 12.6093 43.9784 12.6207 44.0228 12.6131C44.0672 12.6055 44.108 12.5788 44.1347 12.5387L45.3902 10.6376C45.4417 10.5593 45.4275 10.4524 45.3582 10.3913C43.9234 9.15447 42.3091 8.55322 40.4214 8.55322C37.6458 8.55322 35.7066 10.3436 35.7066 12.9051C35.7066 15.6518 37.3794 16.6234 40.2705 17.3754C42.7282 17.9843 43.1455 18.4939 43.1455 19.4063C43.1455 20.4179 42.3074 21.0459 40.9559 21.0459C39.4554 21.0459 38.23 20.5019 36.8626 19.2288C36.8289 19.1983 36.7845 19.183 36.7401 19.1849C36.6939 19.1887 36.6531 19.2116 36.6247 19.2479L35.2164 21.0478C35.1578 21.1242 35.1649 21.2349 35.2324 21.2998C36.8253 22.8287 38.7841 23.6342 40.8991 23.6342C43.8896 23.6342 45.8217 21.8781 45.8217 19.1601C45.8271 16.862 44.5485 15.5907 41.4177 14.7738Z" fill="#ADB7C2"/>
<path d="M15.7981 0C7.57779 0 0.913086 7.16349 0.913086 15.999C0.913086 24.8365 7.5778 31.9981 15.7999 31.9981C24.022 31.9981 30.6867 24.8346 30.6867 15.999C30.685 7.16349 24.022 0 15.7981 0ZM22.6262 23.0766C22.3598 23.5462 21.788 23.6951 21.3512 23.4088C21.3512 23.4088 21.3494 23.4088 21.3494 23.4069C17.8546 21.1126 13.454 20.5934 8.27215 21.8646C7.77314 21.9868 7.2759 21.6508 7.16047 21.1145C7.04682 20.5781 7.35759 20.0437 7.8566 19.9215H7.85838C13.5286 18.5281 18.3926 19.1294 22.3172 21.7062C22.7559 21.9925 22.8944 22.6071 22.6262 23.0766ZM24.4482 18.7209C24.1126 19.3069 23.3969 19.492 22.8518 19.1313C18.8508 16.4877 12.7508 15.7223 8.0182 17.2664C7.40376 17.465 6.75558 17.0947 6.56912 16.4361C6.38443 15.7776 6.73072 15.0809 7.34338 14.8805C12.749 13.1168 19.4706 13.972 24.0664 17.0069C24.6116 17.3657 24.7839 18.1349 24.4482 18.7209ZM26.5135 13.657C26.5135 13.6589 26.5117 13.6589 26.5117 13.6608C26.1211 14.3728 25.2633 14.6057 24.6045 14.1838C19.8062 11.1203 11.8913 10.8397 7.30964 12.3343C6.57445 12.5748 5.79663 12.1281 5.57288 11.3379C5.34912 10.5477 5.76467 9.71166 6.50164 9.47116C11.7599 7.7552 20.5005 8.08733 26.0252 11.6109C26.6858 12.0289 26.906 12.947 26.5135 13.657Z" fill="#ADB7C2"/>
<path d="M98.5591 12.2505C97.6481 12.2505 96.9307 13.0464 96.9307 14.0008C96.9307 14.9552 97.6392 15.7416 98.5502 15.7416C99.4612 15.7416 100.179 14.9456 100.179 13.9913C100.179 13.0369 99.4683 12.2505 98.5591 12.2505ZM98.5502 15.5679C97.7262 15.5679 97.1011 14.8693 97.1011 14.0008C97.1011 13.1323 97.728 12.4242 98.5591 12.4242C99.3831 12.4242 100.008 13.1228 100.008 13.9913C100.008 14.8597 99.3795 15.5679 98.5502 15.5679Z" fill="#ADB7C2"/>
<path d="M78.3888 7.35791C77.476 7.35791 76.7373 8.15195 76.7373 9.13113C76.7373 10.1122 77.476 10.9063 78.3888 10.9063C79.3016 10.9063 80.0386 10.1122 80.0386 9.13113C80.0386 8.15195 79.298 7.35791 78.3888 7.35791Z" fill="#ADB7C2"/>
<path d="M96.4298 12.2827H94.0342C93.9614 12.2827 93.8975 12.3323 93.8744 12.4048L91.4202 19.9386L88.7333 12.3991C88.7085 12.3285 88.6463 12.2827 88.5771 12.2827H84.6454V11.941C84.6454 10.9351 85.0041 10.4866 85.8085 10.4866C86.288 10.4866 86.6734 10.5896 87.1067 10.7442C87.16 10.7614 87.215 10.7538 87.2576 10.7194C87.302 10.6851 87.3269 10.6297 87.3269 10.5724V8.4881C87.3269 8.40794 87.2789 8.33731 87.2079 8.31441C86.7533 8.16935 86.169 8.01855 85.2953 8.01855C83.1714 8.01855 82.0456 9.30504 82.0456 11.7387V12.2617H80.9392C80.8469 12.2617 80.7705 12.3438 80.7705 12.443V14.5808C80.7705 14.68 80.8469 14.7621 80.9392 14.7621H82.0456V23.2465C82.0456 23.3476 82.1219 23.4278 82.2143 23.4278H84.514C84.6081 23.4278 84.6827 23.3476 84.6827 23.2465V14.7602H86.8314L90.1238 23.2446C89.7509 24.134 89.3833 24.3134 88.8807 24.3134C88.4759 24.3134 88.0479 24.1837 87.611 23.926C87.5702 23.9031 87.5222 23.8993 87.4778 23.9126C87.4334 23.9298 87.3961 23.9641 87.3784 24.01L86.5988 25.85C86.5615 25.9378 86.5935 26.0389 86.6716 26.0848C87.4849 26.5581 88.2201 26.7604 89.1276 26.7604C90.8271 26.7604 91.7665 25.9091 92.594 23.6187L96.5861 12.5308C96.6074 12.4755 96.6003 12.4125 96.5683 12.3628C96.5364 12.3132 96.4849 12.2827 96.4298 12.2827Z" fill="#ADB7C2"/>
<path d="M98.9197 14.1703C99.1523 14.0978 99.3139 13.9146 99.3122 13.6149C99.3122 13.2484 99.0529 13.0327 98.6569 13.0327H97.9004V14.8594H98.2236V14.2276H98.577L98.989 14.8594H99.3761L98.9179 14.1703H98.9197ZM98.6445 13.9241H98.2236V13.3457H98.6445C98.854 13.3457 98.9801 13.4469 98.9801 13.634C98.9801 13.8134 98.854 13.9241 98.6445 13.9241Z" fill="#ADB7C2"/>
<path d="M79.5276 12.2729H77.2244C77.132 12.2729 77.0557 12.355 77.0557 12.4543V23.2463C77.0557 23.3475 77.132 23.4276 77.2244 23.4276H79.5258C79.6182 23.4276 79.6945 23.3475 79.6945 23.2463V12.4543C79.6963 12.3531 79.62 12.2729 79.5276 12.2729Z" fill="#ADB7C2"/>
<path d="M63.6831 12.0459C60.5807 12.0459 58.1514 14.6132 58.1514 17.8905C58.1514 21.1334 60.5647 23.672 63.6458 23.672C66.7589 23.672 69.1953 21.1143 69.1953 17.8485C69.1953 14.596 66.7731 12.0459 63.6831 12.0459ZM63.6831 21.162C62.0333 21.162 60.7885 19.7362 60.7885 17.8485C60.7885 15.9512 61.9907 14.575 63.6458 14.575C65.3062 14.575 66.5582 15.9989 66.5582 17.8905C66.5564 19.7858 65.3488 21.162 63.6831 21.162Z" fill="#ADB7C2"/>
<path d="M52.5884 12.0459H52.5866C51.2902 12.0459 50.2283 12.5937 49.3492 13.7199V12.4544C49.3492 12.3551 49.2746 12.273 49.1823 12.273H46.8808C46.7885 12.273 46.7139 12.3551 46.7139 12.4544V26.516C46.7139 26.6153 46.7885 26.6974 46.8808 26.6974H49.1823C49.2746 26.6974 49.3492 26.6153 49.3492 26.516V22.0782C50.2265 23.1357 51.2902 23.6529 52.5866 23.6529C54.9946 23.6529 57.4346 21.6602 57.4346 17.8504C57.4382 14.0386 54.9999 12.0459 52.5884 12.0459ZM54.7584 17.8485C54.7584 19.7877 53.6468 21.1429 52.0556 21.1429C50.4822 21.1429 49.2942 19.7267 49.2942 17.8485C49.2942 15.9703 50.4822 14.554 52.0556 14.554C53.6201 14.5559 54.7584 15.9397 54.7584 17.8485Z" fill="#ADB7C2"/>
</g>
<defs>
<clipPath id="clip0_2364_2836">
<rect width="99.2656" height="32" fill="white" transform="translate(0.913086)"/>
</clipPath>
</defs>
</svg>
